<?xml version="1.0" encoding="UTF-8"?><svg id="a" xmlns="http://www.w3.org/2000/svg" viewBox="0 0 360 360"><rect width="360" height="360" style="fill:#262626;"/><path d="M179.21,92.03c6.44-.45,11.79,4.63,11.79,10.97v22h41.25c13.67,0,24.75,11.08,24.75,24.75v93.5c0,13.67-11.08,24.75-24.75,24.75h-104.5c-13.67,0-24.75-11.08-24.75-24.75v-93.5c0-13.67,11.08-24.75,24.75-24.75h41.25v-21.78c0-5.64,4.59-10.81,10.21-11.2ZM141.35,224c-3.36,0-6.05,3.06-5.4,6.53.48,2.62,2.87,4.47,5.54,4.47h10.73c2.67,0,5.05-1.85,5.54-4.47.64-3.47-2.04-6.53-5.4-6.53h-11ZM174.35,224c-3.36,0-6.05,3.06-5.4,6.53.48,2.62,2.87,4.47,5.54,4.47h10.73c2.67,0,5.05-1.85,5.54-4.47.64-3.47-2.04-6.53-5.4-6.53h-11ZM207.35,224c-3.36,0-6.05,3.06-5.4,6.53.48,2.62,2.87,4.47,5.54,4.47h10.73c2.67,0,5.05-1.85,5.54-4.47.64-3.47-2.04-6.53-5.4-6.53h-11ZM160.6,179.87c0-7.59-6.16-13.75-13.75-13.75s-13.75,6.16-13.75,13.75,6.16,13.75,13.75,13.75,13.75-6.16,13.75-13.75ZM212.85,193.62c7.59,0,13.75-6.16,13.75-13.75s-6.16-13.75-13.75-13.75-13.75,6.16-13.75,13.75,6.16,13.75,13.75,13.75ZM86.5,169h5.5v66h-5.5c-9.11,0-16.5-7.39-16.5-16.5v-33c0-9.11,7.39-16.5,16.5-16.5ZM290,185.5v33c0,9.11-7.39,16.5-16.5,16.5h-5.5v-66h5.5c9.11,0,16.5,7.39,16.5,16.5Z" style="fill:#9fc69f;"/></svg>