<?xml version="1.0" encoding="UTF-8"?><svg id="a" xmlns="http://www.w3.org/2000/svg" viewBox="0 0 261.41 75.59"><circle cx="37.79" cy="37.79" r="37.79" style="fill:#ffcf00;"/><path d="M17.95,18.93l17.95,17.95-17.95,17.95M40.63,18.93l17.95,17.95-17.95,17.95" style="fill:none; stroke:#191919; stroke-width:9.07px;"/><path d="M107.47,42.52l6.73,1.13c-.86,2.47-2.23,4.35-4.1,5.63s-4.2,1.93-7,1.93c-4.44,0-7.72-1.45-9.85-4.35-1.68-2.32-2.52-5.25-2.52-8.79,0-4.23,1.1-7.54,3.32-9.94,2.21-2.39,5.01-3.59,8.39-3.59,3.8,0,6.79,1.25,8.99,3.76,2.19,2.51,3.24,6.35,3.15,11.52h-16.92c.05,2,.59,3.56,1.63,4.67,1.04,1.11,2.34,1.67,3.89,1.67,1.06,0,1.95-.29,2.67-.87.72-.58,1.27-1.51,1.63-2.79ZM107.85,35.69c-.05-1.95-.55-3.44-1.51-4.46-.96-1.02-2.13-1.53-3.51-1.53-1.47,0-2.69.54-3.65,1.61-.96,1.07-1.43,2.53-1.42,4.37h10.09Z"/><path d="M117.68,43.36l6.78-1.03c.29,1.31.87,2.31,1.75,2.99.88.68,2.12,1.02,3.7,1.02,1.74,0,3.06-.32,3.94-.96.59-.45.89-1.05.89-1.8,0-.51-.16-.94-.48-1.27-.34-.32-1.09-.62-2.26-.89-5.45-1.2-8.9-2.3-10.36-3.29-2.02-1.38-3.03-3.29-3.03-5.74,0-2.21.87-4.07,2.62-5.57,1.75-1.51,4.45-2.26,8.12-2.26s6.09.57,7.78,1.71c1.7,1.14,2.87,2.82,3.51,5.05l-6.37,1.18c-.27-.99-.79-1.75-1.55-2.28-.76-.53-1.85-.79-3.26-.79-1.78,0-3.05.25-3.82.74-.51.35-.77.81-.77,1.37,0,.48.22.89.67,1.23.61.45,2.71,1.08,6.31,1.9,3.6.82,6.11,1.82,7.53,3,1.41,1.2,2.11,2.88,2.11,5.02,0,2.34-.98,4.35-2.93,6.03-1.96,1.68-4.85,2.52-8.67,2.52-3.48,0-6.23-.71-8.25-2.12-2.03-1.41-3.35-3.32-3.98-5.74Z"/><path d="M147.14,50.64V15.41h6.75v12.69c2.08-2.37,4.55-3.56,7.4-3.56,3.11,0,5.68,1.13,7.71,3.38,2.03,2.25,3.05,5.48,3.05,9.69s-1.04,7.71-3.11,10.07c-2.07,2.35-4.59,3.53-7.56,3.53-1.46,0-2.9-.37-4.31-1.09-1.42-.73-2.64-1.81-3.66-3.23v3.75h-6.27ZM153.84,37.33c0,2.64.42,4.6,1.25,5.86,1.17,1.79,2.72,2.69,4.66,2.69,1.49,0,2.76-.64,3.81-1.91,1.05-1.27,1.57-3.28,1.57-6.02,0-2.92-.53-5.02-1.59-6.31-1.06-1.29-2.41-1.93-4.06-1.93s-2.96.63-4.04,1.89c-1.07,1.26-1.61,3.17-1.61,5.73Z"/><path d="M194.28,50.64v-3.82c-.93,1.36-2.15,2.43-3.66,3.22-1.51.78-3.11,1.18-4.79,1.18s-3.25-.38-4.61-1.13-2.35-1.81-2.96-3.17c-.61-1.36-.91-3.24-.91-5.65v-16.15h6.75v11.73c0,3.59.12,5.79.37,6.6s.7,1.45,1.36,1.92c.66.47,1.49.71,2.5.71,1.15,0,2.19-.32,3.1-.95.91-.63,1.54-1.42,1.87-2.35.34-.94.5-3.23.5-6.88v-10.76h6.75v25.52h-6.27Z"/><path d="M207.54,21.66v-6.25h6.75v6.25h-6.75ZM207.54,50.64v-25.52h6.75v25.52h-6.75Z"/><path d="M221.21,50.64V15.41h6.75v35.23h-6.75Z"/><path d="M258.29,50.64h-6.27v-3.75c-1.04,1.46-2.27,2.54-3.69,3.26-1.42.71-2.85,1.07-4.29,1.07-2.93,0-5.44-1.18-7.53-3.54-2.09-2.36-3.14-5.66-3.14-9.89s1.02-7.61,3.05-9.86c2.03-2.25,4.6-3.38,7.71-3.38,2.85,0,5.32,1.19,7.4,3.56v-12.69h6.75v35.23ZM240.27,37.33c0,2.72.38,4.69,1.13,5.91,1.09,1.76,2.61,2.64,4.56,2.64,1.55,0,2.88-.66,3.96-1.98,1.09-1.32,1.63-3.29,1.63-5.92,0-2.93-.53-5.04-1.59-6.33-1.06-1.29-2.41-1.93-4.06-1.93s-2.94.64-4.02,1.91c-1.08,1.27-1.62,3.18-1.62,5.71Z"/></svg>