<?xml version="1.0" encoding="UTF-8"?><svg id="a" xmlns="http://www.w3.org/2000/svg" viewBox="0 0 105.34 23.51"><g id="b"><path id="c" d="M32.68,23.51V.46h1.25v3.63c.15-.16.28-.33.41-.51,1.04-2.17,3.25-3.53,5.65-3.51,2.85-.09,5.17.97,6.53,3.51,1.76,3.2,1.86,7.05.27,10.33-1.27,2.84-4.4,4.26-7.75,3.74-2.12-.18-4-1.42-5-3.3v9.17h-1.35ZM33.93,8.61c.11,1.12.15,1.92.28,2.71.49,3.08,2.31,4.91,5.17,5.24,2.77.46,5.47-1.11,6.46-3.74,1.11-2.65,1.03-5.65-.22-8.24-1.05-2.35-3.52-3.71-6.07-3.35-2.38.17-4.4,1.84-5.01,4.14-.27,1.07-.47,2.14-.61,3.23Z"/><path id="d" d="M73.43,11.75c-.39,3.36-3.21,5.9-6.59,5.96-5.24.26-7.7-3.22-8.09-7.23-.27-2.18.08-4.39,1.02-6.38,1.34-2.8,4.34-4.41,7.41-3.97,2.92.25,5.35,2.33,6.04,5.18.27,1.26.46,2.54.59,3.83h-13.78c-.26,3.64,1.7,6.57,4.48,7.28,3.46.85,6.41-.65,7.48-3.93.24-.84.67-.96,1.44-.72ZM60.03,7.96h12.31c-.08-3.88-2.49-6.69-5.77-6.73-3.71-.06-6.38,2.65-6.54,6.73Z"/><path id="e" d="M75.96,11.83h1.21c.09,1.81,1.19,3.42,2.84,4.17,2.06.93,4.44.87,6.45-.17,1.11-.5,1.79-1.64,1.7-2.85.06-1.17-.66-2.25-1.77-2.63-1.33-.49-2.74-.77-4.09-1.2-1.41-.4-2.78-.9-4.12-1.51-2.18-1.06-2.31-5.21.15-6.52,2.57-1.45,5.69-1.5,8.31-.13,1.59.88,2.48,2.66,2.21,4.46h-1.04c0-.05-.09-.09-.09-.14-.13-3.31-2.9-4.33-5.88-4.04-.89.11-1.75.37-2.55.77-.99.45-1.58,1.47-1.48,2.55,0,1.08.68,2.04,1.7,2.4,1.31.48,2.68.78,4.03,1.16,1.08.3,2.2.49,3.25.85,1.51.5,2.56,1.87,2.64,3.46.26,1.75-.63,3.46-2.2,4.26-2.84,1.61-7.52,1.18-9.61-.85-1.07-1.07-1.66-2.53-1.65-4.04Z"/><path id="f" d="M104.74,5.46h-1.13c0-.15-.06-.29-.08-.42-.04-1.75-1.29-3.23-3.01-3.56-1.57-.45-3.25-.37-4.77.23-1.24.35-2.09,1.48-2.1,2.77-.04,1.27.81,2.39,2.04,2.69,1.7.53,3.45.85,5.17,1.33.56.13,1.11.3,1.65.5,2.21.79,3.36,3.23,2.57,5.44-.4,1.12-1.25,2.02-2.34,2.48-2.43,1.1-5.21,1.13-7.66.08-2.04-.88-3.32-2.94-3.2-5.16h1.11c.7,3.36,3.98,5.51,7.33,4.82.75-.16,1.47-.45,2.11-.87,1.05-.55,1.69-1.66,1.63-2.84.05-1.17-.68-2.24-1.8-2.61-1.33-.49-2.74-.76-4.09-1.19-1.42-.39-2.8-.89-4.14-1.49-2.13-1.05-2.3-5.16.13-6.47,2.6-1.51,5.81-1.55,8.44-.09,1.51.9,2.35,2.62,2.14,4.37Z"/><path id="g" d="M30.61,17.29c-.92.35-1.96-.05-2.42-.92-1.39-2.08-2.92-4.06-4.39-6.08l-.64-.85c-1.75,2.35-3.51,4.6-5.11,6.94-.43.83-1.41,1.22-2.3.9l6.58-8.83L16.22.48c.91-.33,1.92.03,2.43.85,1.42,2.08,3,4.06,4.56,6.16,1.57-2.08,3.13-4.08,4.59-6.14.43-.82,1.41-1.19,2.28-.85l-2.37,3.15c-1.06,1.4-2.11,2.82-3.22,4.19-.35.31-.38.85-.07,1.2.02.02.04.05.07.07,2.03,2.7,4.05,5.4,6.13,8.18Z"/><path id="h" d="M58.54.39v1.19c-3.4-.22-6.34,2.35-6.56,5.75-.01.21-.02.41,0,.62v9.36h-1.22V.46h1.19v3.46c1.47-2.52,3.74-3.46,6.6-3.52Z"/><path id="i" d="M0,8.34c.18-.85.29-1.78.54-2.65C2.01.46,8.01-1.72,12.14,1.52c2.42,1.9,3.02,4.59,2.9,7.62H1.42c-.22,5.41,3.68,8.68,8.68,7.01,1.65-.59,2.88-1.97,3.29-3.67.26-.85.69-1,1.5-.75-.27,2.1-1.49,3.96-3.3,5.05-3.04,1.66-6.8,1.18-9.32-1.19-1.22-1.37-1.95-3.09-2.09-4.92,0-.29-.11-.58-.17-.85,0-.5,0-1,0-1.48ZM1.44,7.98h12.31c-.08-3.92-2.55-6.71-5.85-6.73-3.68-.05-6.31,2.67-6.47,6.71v.02Z"/></g></svg>