<?xml version="1.0" encoding="UTF-8"?><svg id="a" xmlns="http://www.w3.org/2000/svg" viewBox="0 0 72 72"><rect width="72" height="72" style="fill:none;"/><path d="M17.81,17.81V54.19c0,3.35,2.71,6.06,6.06,6.06h24.25c3.35,0,6.06-2.71,6.06-6.06V17.81c0-3.35-2.71-6.06-6.06-6.06H23.87c-3.35,0-6.06,2.71-6.06,6.06Zm9.09,0h18.19c1.67,0,3.03,1.36,3.03,3.03v3.03c0,1.67-1.36,3.03-3.03,3.03H26.91c-1.67,0-3.03-1.36-3.03-3.03v-3.03c0-1.67,1.36-3.03,3.03-3.03Zm3.01,15.2c0,1.67-1.36,3.03-3.03,3.03s-3.03-1.36-3.03-3.03,1.36-3.03,3.03-3.03,3.03,1.36,3.03,3.03Zm-3.03,12.12c-1.67,0-3.03-1.36-3.03-3.03s1.36-3.03,3.03-3.03,3.03,1.36,3.03,3.03-1.36,3.03-3.03,3.03Zm.06,2.98h8.97c1.55,0,2.98,1.26,3.09,2.81,.12,1.78-1.28,3.25-3.02,3.25h-9.09c-1.75,0-3.15-1.47-3.02-3.25,.11-1.55,1.53-2.81,3.09-2.81Zm9.03-12.08c-1.67,0-3.03-1.36-3.03-3.03s1.36-3.03,3.03-3.03,3.03,1.36,3.03,3.03-1.36,3.03-3.03,3.03Zm3.03,6.06c0,1.67-1.36,3.03-3.03,3.03s-3.03-1.36-3.03-3.03,1.36-3.03,3.03-3.03,3.03,1.36,3.03,3.03Zm6.06-6.06c-1.67,0-3.03-1.36-3.03-3.03s1.36-3.03,3.03-3.03,3.03,1.36,3.03,3.03-1.36,3.03-3.03,3.03Zm3.03,6.06c0,1.67-1.36,3.03-3.03,3.03s-3.03-1.36-3.03-3.03,1.36-3.03,3.03-3.03,3.03,1.36,3.03,3.03Zm-3.03,12.12c-1.67,0-3.03-1.36-3.03-3.03s1.36-3.03,3.03-3.03,3.03,1.36,3.03,3.03-1.36,3.03-3.03,3.03Z" style="fill:#009245;"/></svg>