<?xml version="1.0" encoding="UTF-8"?><svg id="a" xmlns="http://www.w3.org/2000/svg" viewBox="0 0 360 360"><rect width="360" height="360" style="fill:#1e7d2e; stroke-width:0px;"/><path d="M205.29,78.86h-62.96c-6.48,0-12.42,5.27-12.87,11.74-.51,7.4,5.32,13.55,12.61,13.55v52.47c0,4.66-1.3,9.28-3.75,13.24l-42.75,69.5c-3.53,5.79-4.88,12.64-3.59,19.51,2.45,13,14.03,22.29,27.27,22.29h121.84c15.13,0,27.42-12.29,27.42-27.42,0-5.06-1.42-10.04-4.07-14.38l-42.75-69.46c-2.45-3.99-3.75-8.57-3.75-13.24v-52.51c7.29,0,13.12-6.14,12.61-13.55-.45-6.47-6.38-11.74-12.87-11.74h-12.39ZM167.36,156.61v-52.47h25.29v52.47c0,9.36,2.61,18.53,7.51,26.51l13.63,22.16h-67.56l13.63-22.16c4.9-7.98,7.51-17.15,7.51-26.51h0Z" style="fill:#e4ffe8; stroke-width:0px;"/></svg>