<?xml version="1.0" encoding="UTF-8"?><svg id="a" xmlns="http://www.w3.org/2000/svg" xmlns:xlink="http://www.w3.org/1999/xlink" viewBox="0 0 413.98 360"><defs><clipPath id="b"><path d="M386.38,157.03c0,58.58-78.66,106.07-175.69,106.07-16.66,0-32.77-1.41-48.05-4.01l-70.28,49.95,6.64-70.13c-39.1-19.44-64-48.91-64-81.87,0-58.58,78.66-106.07,175.69-106.07s175.69,47.49,175.69,106.07Z" style="fill:none; stroke-width:0px;"/></clipPath></defs><rect x="30.68" width="360" height="360" style="fill:none; stroke-width:0px;"/><g style="clip-path:url(#b);"><path d="M10.87,30.14v305.53h403.12V30.14H10.87ZM269.41,152.48c-4.15,3.58-10.41,3.19-14.28-.68l-34.08-34.08v99.62c0,5.99-5.05,10.79-11.13,10.36-5.32-.37-9.65-5.25-9.65-10.58v-99.41l-34.22,34.26c-4.24,4.24-11.25,4.05-15.25-.58-3.58-4.15-3.19-10.41.68-14.28l51.8-51.8c4.06-4.06,10.65-4.06,14.71,0l.03-.03,51.95,51.95c4.24,4.24,4.05,11.25-.58,15.25Z" style="fill:#e68a2e; stroke-width:0px;"/><path d="M221.05,217.34c0,5.99-5.05,10.79-11.13,10.36-5.32-.37-9.65-5.25-9.65-10.58v-50.97c-7.73-8.21-16.99-15.32-27.41-21l-6.81,6.82c-4.24,4.24-11.25,4.05-15.25-.58-3.58-4.15-3.19-10.41.68-14.28l.78-.78c-12.32-3.98-25.65-6.16-39.58-6.16C50.45,130.18,0,173.61,0,227.18s50.45,97,112.69,97,112.69-43.43,112.69-97c0-9.26-1.51-18.21-4.32-26.69v16.84Z" style="fill:#c06500; stroke-width:0px;"/><path d="M285.03,130.05c-7.18,0-14.2.42-21.03,1.21l5.98,5.98c4.24,4.24,4.05,11.25-.58,15.25-4.15,3.58-10.41,3.19-14.28-.68l-15.81-15.81c-6.4,1.74-12.51,3.85-18.27,6.26v75.08c0,5.99-5.05,10.79-11.13,10.36-5.32-.37-9.65-5.25-9.65-10.58v-63.78c-20.18,13.56-32.57,31.95-32.57,52.21,0,41.7,52.53,75.51,117.33,75.51s117.33-33.81,117.33-75.51-52.53-75.51-117.33-75.51Z" style="fill:#967224; stroke-width:0px;"/></g></svg>