<?xml version="1.0" encoding="UTF-8"?><svg id="a" xmlns="http://www.w3.org/2000/svg" viewBox="0 0 360 360"><defs><style>.b{fill:#f1865e;}.c{fill:#fff;}.d{fill:#f1785e;}</style></defs><g><rect class="d" width="360" height="288"/><g><path class="c" d="M26.85,178.98v-19.68l54.5-72.23h27.33v70.11h13.5v21.8h-13.5v21.96h-25.87v-21.96H26.85Zm55.96-60.51l-29.93,38.72h29.93v-38.72Z"/><path class="c" d="M138.84,174.75c-3.96-8.78-5.94-19.03-5.94-30.75s1.98-22.12,5.94-30.91c3.96-8.78,9.52-15.54,16.67-20.25,7.16-4.72,15.45-7.08,24.89-7.08s17.92,2.36,25.13,7.08c7.21,4.72,12.8,11.47,16.75,20.25,3.96,8.78,5.94,19.09,5.94,30.91s-1.98,21.96-5.94,30.75c-3.96,8.78-9.57,15.56-16.84,20.33-7.27,4.77-15.62,7.16-25.05,7.16s-17.73-2.39-24.89-7.16c-7.16-4.77-12.72-11.55-16.67-20.33Zm41.56,5.53c7.16,0,12.61-3.09,16.35-9.27,3.74-6.18,5.61-15.18,5.61-27s-1.87-20.82-5.61-27c-3.74-6.18-9.19-9.27-16.35-9.27s-12.44,3.09-16.19,9.27c-3.74,6.18-5.61,15.18-5.61,27s1.87,20.82,5.61,27c3.74,6.18,9.14,9.27,16.19,9.27Z"/><path class="c" d="M237.83,178.98v-19.68l54.49-72.23h27.33v70.11h13.5v21.8h-13.5v21.96h-25.87v-21.96h-55.96Zm55.96-60.51l-29.93,38.72h29.93v-38.72Z"/></g></g><g><rect class="b" y="252" width="360" height="108"/><g><path class="c" d="M40.4,294.45l4.16,10.13c.9,2.22,1.56,4.15,1.98,5.78,.46-1.63,1.14-3.55,2.05-5.78l4.16-10.13h7.03v23.1h-5.25v-9.74c0-2.4,.06-4.44,.17-6.14-.55,1.61-1.28,3.52-2.18,5.74l-4.13,10.13h-3.83l-4.16-10.13c-.9-2.22-1.62-4.14-2.15-5.74,.11,1.69,.17,3.74,.17,6.14v9.74h-5.25v-23.1h7.23Z"/><path class="c" d="M79.73,294.45v4.46h-10.83v4.46h8.71v4.46h-8.71v5.28h10.99v4.46h-16.24v-23.1h16.07Z"/><path class="c" d="M90.95,294.45c2.18,0,4.17,.43,5.97,1.29,1.8,.86,3.25,2.15,4.34,3.88,1.09,1.73,1.63,3.86,1.63,6.39s-.54,4.63-1.63,6.37c-1.09,1.74-2.54,3.04-4.34,3.89-1.8,.86-3.79,1.29-5.97,1.29h-8.09v-23.1h8.09Zm4.64,16.9c1.38-1.17,2.06-2.95,2.06-5.35s-.69-4.18-2.06-5.35c-1.38-1.17-3.13-1.75-5.26-1.75h-2.21v14.19h2.21c2.13,0,3.89-.58,5.26-1.75Z"/><path class="c" d="M111.11,294.45v23.1h-5.25v-23.1h5.25Z"/><path class="c" d="M127.42,294.45l8.75,23.1h-5.61l-1.72-4.65h-8.81l-1.72,4.65h-5.45l8.75-23.1h5.81Zm-3,6.67l-2.74,7.33h5.51l-2.77-7.33Z"/><path class="c" d="M149.99,294.45l5.71,10.56c1.12,2.11,2.02,3.95,2.71,5.51-.11-1.72-.17-3.76-.17-6.14v-9.93h5.21v23.1h-6.34l-5.71-10.56c-1.12-2.11-2.02-3.95-2.71-5.51,.13,1.72,.2,3.76,.2,6.14v9.93h-5.25v-23.1h6.34Z"/><path class="c" d="M167.94,312.06c-1.03-1.79-1.55-3.81-1.55-6.06s.52-4.26,1.55-6.06c1.03-1.79,2.46-3.2,4.27-4.22,1.82-1.02,3.86-1.53,6.12-1.53s4.24,.51,6.04,1.53c1.8,1.02,3.22,2.44,4.26,4.24,1.03,1.8,1.55,3.82,1.55,6.04s-.52,4.24-1.55,6.04c-1.03,1.8-2.45,3.22-4.26,4.24-1.8,1.02-3.82,1.53-6.04,1.53s-4.31-.51-6.12-1.53-3.24-2.43-4.27-4.22Zm6.93,.35c1.01,.64,2.17,.96,3.46,.96s2.39-.32,3.4-.96c1.01-.64,1.8-1.52,2.38-2.64s.86-2.38,.86-3.76-.29-2.64-.86-3.76-1.36-2-2.38-2.64c-1.01-.64-2.14-.96-3.4-.96s-2.45,.32-3.46,.96c-1.01,.64-1.8,1.52-2.38,2.64-.57,1.12-.86,2.38-.86,3.76s.29,2.64,.86,3.76c.57,1.12,1.36,2,2.38,2.64Z"/><path class="c" d="M190.58,298.9v-4.46h18.78v4.46h-6.77v18.65h-5.25v-18.65h-6.77Z"/><path class="c" d="M233.64,294.45v4.46h-10.83v4.46h8.71v4.46h-8.71v9.74h-5.25v-23.1h16.07Z"/><path class="c" d="M236.02,312.06c-1.03-1.79-1.55-3.81-1.55-6.06s.52-4.26,1.55-6.06c1.03-1.79,2.46-3.2,4.27-4.22,1.82-1.02,3.86-1.53,6.12-1.53s4.24,.51,6.04,1.53c1.8,1.02,3.22,2.44,4.26,4.24,1.03,1.8,1.55,3.82,1.55,6.04s-.52,4.24-1.55,6.04c-1.03,1.8-2.45,3.22-4.26,4.24-1.8,1.02-3.82,1.53-6.04,1.53s-4.31-.51-6.12-1.53-3.24-2.43-4.27-4.22Zm6.93,.35c1.01,.64,2.17,.96,3.46,.96s2.39-.32,3.4-.96c1.01-.64,1.8-1.52,2.38-2.64s.86-2.38,.86-3.76-.29-2.64-.86-3.76-1.36-2-2.38-2.64c-1.01-.64-2.14-.96-3.4-.96s-2.45,.32-3.46,.96c-1.01,.64-1.8,1.52-2.38,2.64-.57,1.12-.86,2.38-.86,3.76s.29,2.64,.86,3.76c.57,1.12,1.36,2,2.38,2.64Z"/><path class="c" d="M262.2,313.57c-.8-1.35-1.21-2.92-1.21-4.7v-14.42h5.21v14.42c0,1.34,.41,2.43,1.24,3.25,.82,.83,1.9,1.24,3.22,1.24s2.42-.41,3.23-1.24c.81-.83,1.22-1.91,1.22-3.25v-14.42h5.25v14.42c0,1.78-.4,3.35-1.21,4.7-.8,1.35-1.94,2.4-3.4,3.14-1.46,.74-3.16,1.11-5.1,1.11s-3.6-.37-5.07-1.11-2.6-1.78-3.4-3.14Z"/><path class="c" d="M290.37,294.45l5.71,10.56c1.12,2.11,2.02,3.95,2.71,5.51-.11-1.72-.17-3.76-.17-6.14v-9.93h5.21v23.1h-6.34l-5.71-10.56c-1.12-2.11-2.02-3.95-2.71-5.51,.13,1.72,.2,3.76,.2,6.14v9.93h-5.25v-23.1h6.34Z"/><path class="c" d="M315.81,294.45c2.18,0,4.17,.43,5.97,1.29,1.8,.86,3.25,2.15,4.34,3.88,1.09,1.73,1.63,3.86,1.63,6.39s-.54,4.63-1.63,6.37c-1.09,1.74-2.54,3.04-4.34,3.89-1.8,.86-3.79,1.29-5.97,1.29h-8.09v-23.1h8.09Zm4.64,16.9c1.38-1.17,2.06-2.95,2.06-5.35s-.69-4.18-2.06-5.35-3.13-1.75-5.26-1.75h-2.21v14.19h2.21c2.13,0,3.89-.58,5.26-1.75Z"/></g></g></svg>