<?xml version="1.0" encoding="UTF-8"?><svg id="a" xmlns="http://www.w3.org/2000/svg" viewBox="0 0 360 360"><rect width="360" height="360" style="fill:#ff403f; stroke-width:0px;"/><path d="M84.42,106c0-13.62,11.04-24.67,24.67-24.67h61.67v49.33c0,6.81,5.52,12.33,12.33,12.33h49.33v55.5h-80.17c-13.62,0-24.67,11.04-24.67,24.67v55.5h-18.5c-13.62,0-24.67-11.04-24.67-24.67V106ZM232.42,130.67h-49.33v-49.33l49.33,49.33ZM152.07,217h12.8c9.2,0,17.48,5.89,20.22,14.67,4.64,14.84-6.36,28.49-20.51,28.49h-6.17v12.35c0,2.62-1.64,5.01-4.14,5.83-4.24,1.38-8.19-1.79-8.19-5.84v-49.51c0-3.29,2.69-5.99,5.99-5.99ZM164.58,247.83c5.34,0,9.59-4.47,9.23-9.89-.33-4.88-4.51-8.61-9.4-8.61h-5.99v18.5h6.17ZM201.58,217h12.33c10.22,0,18.5,8.28,18.5,18.5v24.67c0,10.22-8.28,18.5-18.5,18.5h-12.33c-3.39,0-6.17-2.77-6.17-6.17v-49.33c0-3.39,2.77-6.17,6.17-6.17ZM220.08,260.17v-24.67c0-3.39-2.77-6.17-6.17-6.17h-6.17v37h6.17c3.39,0,6.17-2.77,6.17-6.17ZM244.75,223.17c0-3.39,2.77-6.17,6.17-6.17h18.35c2.99,0,5.67,2.07,6.21,5.01.72,3.89-2.29,7.32-6.06,7.32h-12.33v12.33h12.18c2.99,0,5.67,2.07,6.21,5.01.72,3.89-2.29,7.32-6.06,7.32h-12.33v18.35c0,2.99-2.07,5.67-5.01,6.21-3.89.72-7.32-2.29-7.32-6.06v-49.33Z" style="fill:#ffc7c7; stroke-width:0px;"/></svg>