<?xml version="1.0" encoding="UTF-8"?><svg id="a" xmlns="http://www.w3.org/2000/svg" viewBox="0 0 52.5 52.5"><path d="M42.25,25.56v1.38c0,1.39-1.12,2.51-2.51,2.51h-10.29v10.29c0,1.39-1.12,2.51-2.51,2.51h-1.38c-1.39,0-2.51-1.12-2.51-2.51v-10.29H12.76c-1.39,0-2.51-1.12-2.51-2.51v-1.38c0-1.39,1.12-2.51,2.51-2.51h10.29V12.76c0-1.39,1.12-2.51,2.51-2.51h1.38c1.39,0,2.51,1.12,2.51,2.51v10.29h10.29c1.39,0,2.51,1.12,2.51,2.51Z"/><path d="M26.25,0C11.75,0,0,11.75,0,26.25s11.75,26.25,26.25,26.25,26.25-11.75,26.25-26.25S40.75,0,26.25,0Zm0,48.25c-12.15,0-22-9.85-22-22S14.1,4.25,26.25,4.25s22,9.85,22,22-9.85,22-22,22Z"/></svg>