<?xml version="1.0" encoding="UTF-8"?><svg id="a" xmlns="http://www.w3.org/2000/svg" viewBox="0 0 72 72"><rect width="72" height="72" style="fill:#018ff6;"/><path d="M36.11,34.42V12.15c0-.91,.74-1.66,1.66-1.65,12.28,.03,22.23,9.98,22.26,22.26,0,.91-.74,1.66-1.65,1.66h-22.26Z" style="fill:#ffcc80; stroke:#ffcc80; stroke-miterlimit:10; stroke-width:2.25px;"/><path d="M9,37.58c0-12.09,8.98-22.09,20.63-23.69,.92-.13,1.69,.61,1.69,1.53v23.75l15.6,15.6c.67,.67,.62,1.76-.15,2.3-3.91,2.79-8.69,4.42-13.85,4.42-13.2,0-23.92-10.7-23.92-23.92Z" style="fill:#ff9a07; stroke:#ff9a07; stroke-miterlimit:10; stroke-width:2.25px;"/><path d="M61.45,39.2c.93,0,1.65,.78,1.53,1.69-.77,5.57-3.45,10.52-7.36,14.18-.6,.56-1.53,.52-2.11-.07l-15.82-15.81h23.76Z" style="fill:#fff; stroke:#fff; stroke-miterlimit:10; stroke-width:2.25px;"/></svg>