<?xml version="1.0" encoding="UTF-8"?><svg id="a" xmlns="http://www.w3.org/2000/svg" viewBox="0 0 72 72"><rect width="72" height="72" style="opacity:0; stroke-width:0px;"/><path d="M14.13,29.75c0-5.18,4.2-9.37,9.37-9.37h3.05c1.6,0,3.07,1.3,3.18,2.9.13,1.83-1.31,3.35-3.12,3.35h-.77c-3.02,0-5.47,2.45-5.47,5.47v.78h6.25c3.45,0,6.25,2.8,6.25,6.25v7.5c0,2.76-2.24,5-5,5h-8.75c-2.76,0-5-2.24-5-5v-16.88ZM39.12,29.75c0-5.18,4.2-9.37,9.37-9.37h3.05c1.6,0,3.07,1.3,3.18,2.9.13,1.83-1.31,3.35-3.12,3.35h-.77c-3.02,0-5.47,2.45-5.47,5.47v.78h6.25c3.45,0,6.25,2.8,6.25,6.25v7.5c0,2.76-2.24,5-5,5h-8.75c-2.76,0-5-2.24-5-5v-16.88Z" style="fill:#00a99d; stroke-width:0px;"/></svg>