<?xml version="1.0" encoding="UTF-8"?><svg id="a" xmlns="http://www.w3.org/2000/svg" viewBox="0 0 547.77 410.59"><path d="M471.42,235.99c-19.14.1-35.73,4.7-49.63,11.55-5.08-10.15-10.23-19.07-11.09-25.71-1.01-7.75-2.18-12.37-.96-21.6,1.22-9.23,6.56-22.3,6.48-23.28s-1.2-5.68-12.24-5.76c-11.04-.08-20.49,2.12-21.6,5.04-1.11,2.92-3.24,9.48-4.56,16.32-1.93,10.01-22.05,45.72-33.47,64.41-3.73-7.29-6.91-13.72-7.57-18.8-1.01-7.75-2.18-12.37-.96-21.6,1.22-9.23,6.56-22.3,6.48-23.28-.08-.98-1.2-5.68-12.24-5.76-11.04-.08-20.49,2.12-21.6,5.04-1.11,2.92-2.3,9.73-4.56,16.32-2.26,6.59-29,66.16-36,81.6-3.57,7.87-6.67,14.19-8.87,18.5,0-.01-.01-.02-.01-.02,0,0-.13.29-.37.77-1.88,3.67-2.99,5.71-2.99,5.71,0,0,.01.03.03.08-1.49,2.7-3.08,5.2-3.87,5.2-.55,0-1.66-7.18.24-17.04,3.98-20.66,13.54-52.89,13.44-54-.05-.57,1.78-6.18-6.24-9.12-7.79-2.85-10.57,1.91-11.28,1.92-.69.01-1.2,1.68-1.2,1.68,0,0,8.68-36.24-16.56-36.24-15.78,0-37.65,17.26-48.42,32.91-6.8,3.71-21.34,11.65-36.78,20.13-5.93,3.26-11.98,6.58-17.71,9.75-.39-.43-.78-.86-1.18-1.29-30.61-32.65-87.19-55.75-84.79-99.65.87-15.96,6.42-57.98,108.72-108.96,83.8-41.76,150.89-30.27,162.48-4.8,16.56,36.38-35.85,104.01-122.88,113.76-33.16,3.72-50.62-9.13-54.96-13.92-4.57-5.04-5.25-5.27-6.96-4.32-2.78,1.54-1.02,5.99,0,8.64,2.6,6.76,13.26,18.75,31.44,24.72,15.99,5.25,54.92,8.13,102-10.08,52.73-20.4,93.9-77.13,81.81-124.56C330.69,2,250.71-13.86,175.02,13.03c-45.05,16-93.82,41.12-128.88,73.92C4.45,125.95-2.2,159.89.54,174.07c9.73,50.39,79.19,83.21,107,107.53-1.37.76-2.66,1.47-3.83,2.11-13.94,6.9-66.89,34.6-80.13,63.88-15.02,33.21,2.39,57.03,13.92,60.24,35.72,9.94,72.37-7.94,92.07-37.32,19.69-29.37,17.29-67.62,8.25-85.08-.11-.22-.24-.43-.35-.64,3.6-2.13,7.27-4.3,10.91-6.43,7.1-4.17,14.06-8.05,20.11-11.34-3.38,9.27-5.86,20.38-7.15,36.42-1.51,18.85,6.21,43.21,16.32,52.8,4.45,4.22,9.81,4.32,13.2,4.32,11.76,0,17.13-9.79,23.04-21.36,7.25-14.2,13.68-30.72,13.68-30.72,0,0-8.07,44.64,13.92,44.64,8.01,0,16.07-10.39,19.66-15.69,0,.06.02.09.02.09,0,0,.21-.34.62-1.04.83-1.27,1.3-2.08,1.3-2.08,0,0,.02-.08.04-.23,3.22-5.59,10.36-18.34,21.08-39.37,13.84-27.17,27.12-61.2,27.12-61.2,0,0,1.24,8.32,5.28,22.08,2.38,8.1,7.44,17.05,11.42,25.63-3.21,4.46-5.18,7.01-5.18,7.01,0,0,.02.05.05.13-2.57,3.41-5.44,7.08-8.45,10.67-10.92,13.01-23.94,27.87-25.68,32.16-2.05,5.05-1.57,8.77,2.4,11.76,2.9,2.18,8.06,2.52,13.44,2.16,9.82-.66,16.73-3.09,20.13-4.58,5.31-1.88,11.5-4.83,17.31-9.1,10.72-7.88,17.18-19.15,16.56-34.08-.34-8.23-2.97-16.38-6.29-24.08.97-1.4,1.95-2.81,2.93-4.24,16.9-24.7,30-51.84,30-51.84,0,0,1.24,8.32,5.28,22.08,2.05,6.96,6.09,14.56,9.72,22.01-15.89,12.91-25.74,27.91-29.16,37.75-6.32,18.2-1.37,26.44,7.92,28.32,4.21.85,10.15-1.08,14.62-2.97,5.56-1.85,12.25-4.92,18.5-9.51,10.72-7.88,21.02-18.91,20.4-33.84-.28-6.8-2.13-13.54-4.63-20.02,13.47-5.61,30.9-8.73,53.11-6.14,47.64,5.56,56.99,35.31,55.2,47.76-1.79,12.45-11.78,19.29-15.12,21.36-3.34,2.07-4.36,2.78-4.08,4.32.41,2.23,1.95,2.15,4.8,1.67,3.92-.66,25.02-10.13,25.92-33.11,1.15-29.18-26.81-61.22-76.32-60.96ZM104.21,359.79c-15.78,17.21-37.83,23.72-47.28,18.24-10.21-5.92-6.17-31.26,13.2-49.53,11.8-11.13,27.04-21.39,37.15-27.7,2.3-1.38,5.68-3.42,9.79-5.88.68-.39,1.06-.6,1.06-.6l-.02-.03c.79-.47,1.6-.96,2.44-1.46,7.05,26,.21,48.89-16.35,66.96ZM219.17,281.64c-5.5,13.4-17,47.68-24,45.84-6.01-1.58-9.67-27.63-1.2-53.28,4.26-12.91,13.37-28.33,18.72-34.32,8.61-9.63,18.1-12.79,20.4-8.88,2.94,4.98-10.47,42.24-13.92,50.64ZM314.15,326.96c-2.33,1.22-4.47,1.98-5.46,1.39-.73-.43.96-2.04.96-2.04,0,0,11.88-12.78,16.56-18.6,2.72-3.38,5.88-7.4,9.32-11.89.03.45.04.89.04,1.33-.04,15.31-14.83,25.65-21.42,29.81ZM387.31,310.28c-1.74-1.24-1.45-5.23,4.27-17.69,2.24-4.89,7.36-13.12,16.26-20.99,1.03,3.24,1.66,6.34,1.64,9.23-.12,19.27-13.86,26.46-22.17,29.45Z" style="fill:#cd6799;"/></svg>