<?xml version="1.0" encoding="UTF-8"?><svg id="a" xmlns="http://www.w3.org/2000/svg" viewBox="0 0 244.16 78.32"><circle cx="39.16" cy="39.16" r="36" style="fill:none; stroke:#fff; stroke-width:6.32px;"/><path d="M29.63,37.17c8.63-7.05,17.07-14.35,25.89-21.19-4.63,7.11-9.38,14.12-14.01,21.23-3.97.02-7.93.02-11.88-.04h0ZM36.86,41.09c3.99,0,7.95,0,11.92.06-8.69,7.01-17.09,14.36-25.93,21.19,4.63-7.11,9.38-14.14,14.01-21.24h0Z" style="fill:#fff;"/><path d="M100.9,46.77l2.06-3.31c.58.44,1.26.81,2.04,1.12.77.31,1.64.46,2.61.46.73,0,1.32-.13,1.78-.4.46-.26.69-.66.69-1.2,0-.43-.18-.77-.54-1.02-.36-.25-1.02-.49-1.98-.7-2.11-.45-3.63-1.08-4.55-1.89-.92-.81-1.38-1.94-1.38-3.39,0-1.7.68-3.05,2.04-4.06,1.36-1.01,3.03-1.52,5.01-1.52,1.02,0,1.98.13,2.9.4.92.26,1.77.65,2.57,1.17l-1.87,3.19c-.69-.43-1.34-.74-1.94-.94-.6-.2-1.22-.3-1.86-.3-.74,0-1.33.14-1.77.42-.44.28-.67.64-.67,1.08,0,.48.2.84.61,1.07.41.23,1.18.46,2.33.7,1.96.41,3.37,1.03,4.23,1.86s1.29,1.97,1.29,3.41c0,1.71-.65,3.08-1.95,4.12-1.3,1.04-3.02,1.56-5.15,1.56-1.18,0-2.3-.15-3.36-.44-1.06-.3-2.11-.76-3.15-1.38Z" style="fill:#fff;"/><path d="M125.79,48.61c-2.8,0-5.01-.79-6.63-2.39-1.61-1.59-2.42-3.73-2.4-6.42.01-2.81.85-5,2.51-6.58,1.66-1.58,3.92-2.37,6.78-2.37s4.99.79,6.58,2.36c1.59,1.57,2.39,3.67,2.39,6.3,0,2.78-.82,5-2.48,6.64-1.65,1.64-3.9,2.46-6.75,2.46ZM125.97,44.8c1.32,0,2.31-.44,2.97-1.31.66-.87.99-2.17.99-3.89s-.33-2.87-1-3.7-1.67-1.25-3-1.25-2.31.45-3.04,1.34c-.73.89-1.09,2.14-1.09,3.74s.35,2.94,1.05,3.79,1.74,1.27,3.11,1.27Z" style="fill:#fff;"/><path d="M152.3,47.08c-.87.53-1.75.91-2.65,1.16-.9.25-1.87.37-2.91.37-2.83,0-5.04-.79-6.63-2.36-1.59-1.57-2.39-3.61-2.39-6.1,0-2.87.85-5.14,2.55-6.8,1.7-1.66,3.96-2.49,6.77-2.49,1.04,0,1.96.1,2.75.31s1.59.53,2.38.97l-1.87,3.34c-.5-.29-.99-.5-1.49-.62-.49-.12-1.02-.19-1.58-.19-1.4,0-2.49.45-3.28,1.35-.79.9-1.19,2.16-1.19,3.8s.42,2.8,1.27,3.68c.84.88,1.91,1.32,3.18,1.32.38,0,.85-.08,1.41-.23.56-.16,1.13-.41,1.71-.77l1.95,3.27Z" style="fill:#fff;"/><path d="M172.12,48.19h-6.01l-5.69-8.37h-.06v8.37h-4.97v-24.45h4.97v15.34h.06l5.31-7.8h5.93l-6.3,7.97,6.76,8.95Z" style="fill:#fff;"/><path d="M189.58,41.11h-11.22c.09,1.3.51,2.28,1.28,2.93s1.83.98,3.18.98c.5,0,1.18-.14,2.04-.43.86-.28,1.7-.73,2.53-1.35l2.16,2.87c-1.16.86-2.34,1.49-3.54,1.89s-2.53.6-3.98.6c-2.72,0-4.83-.76-6.33-2.27s-2.26-3.63-2.26-6.35.8-4.91,2.39-6.6c1.59-1.69,3.61-2.53,6.04-2.53s4.24.71,5.63,2.13c1.39,1.42,2.09,3.46,2.09,6.13v2ZM184.97,38.01c0-1.33-.27-2.3-.8-2.89s-1.31-.9-2.34-.9c-.9,0-1.67.34-2.31,1.02-.64.68-1.04,1.6-1.18,2.77h6.63Z" style="fill:#fff;"/><path d="M203.45,47.91c-.52.23-1.1.4-1.73.51-.63.11-1.28.17-1.94.17-1.82,0-3.19-.44-4.12-1.32s-1.39-2.19-1.39-3.93v-8.42h-2.78v-3.64h2.78v-3.81l4.95-1.42v5.22h3.88v3.64h-3.88v8.08c0,.69.13,1.19.41,1.5.27.31.69.47,1.25.47.29,0,.57-.03.83-.1.26-.07.51-.16.75-.28l.99,3.34Z" style="fill:#fff;"/><path d="M208.66,48.59c-.86,0-1.56-.26-2.11-.77-.55-.51-.83-1.16-.83-1.94s.28-1.45.84-1.95c.56-.51,1.26-.76,2.1-.76s1.56.25,2.11.76c.55.5.83,1.16.83,1.95s-.27,1.43-.82,1.94c-.55.51-1.25.77-2.12.77Z" style="fill:#fff;"/><path d="M218.17,29c-.87,0-1.57-.26-2.12-.78s-.82-1.17-.82-1.94.27-1.46.82-1.97,1.25-.76,2.12-.76,1.57.25,2.12.76.82,1.16.82,1.97-.27,1.45-.82,1.96-1.25.77-2.12.77ZM220.6,48.19h-4.95v-16.92h4.95v16.92Z" style="fill:#fff;"/><path d="M233.58,48.61c-2.81,0-5.01-.79-6.63-2.39-1.61-1.59-2.42-3.73-2.4-6.42.01-2.81.85-5,2.51-6.58,1.66-1.58,3.92-2.37,6.78-2.37s4.99.79,6.58,2.36c1.59,1.57,2.39,3.67,2.39,6.3,0,2.78-.83,5-2.48,6.64s-3.9,2.46-6.75,2.46ZM233.76,44.8c1.32,0,2.31-.44,2.97-1.31.66-.87.99-2.17.99-3.89s-.33-2.87-1-3.7-1.67-1.25-3-1.25-2.31.45-3.04,1.34c-.73.89-1.09,2.14-1.09,3.74s.35,2.94,1.05,3.79,1.74,1.27,3.11,1.27Z" style="fill:#fff;"/></svg>