<?xml version="1.0" encoding="UTF-8"?><svg id="a" xmlns="http://www.w3.org/2000/svg" viewBox="0 0 695 161"><path d="M350,116.7v-9.37c8.56,5.42,17.22,8.13,26,8.13,9.33,0,16.42-1.92,21.25-5.76s7.25-9.22,7.25-16.13c0-6.08-1.62-10.93-4.88-14.56-3.13-3.49-9.79-8.21-19.98-14.14l-1.15-.66c-12.11-7.02-19.78-12.9-23-17.62-3.22-4.73-4.83-10.19-4.83-16.38,0-8.4,3.28-15.54,9.83-21.4,6.56-5.86,15.31-8.79,26.25-8.79,7.11,0,14.22,1.19,21.33,3.57v8.63c-7-3.15-14.47-4.73-22.42-4.73s-14.54,2.05-19.29,6.14c-4.75,4.09-7.12,9.29-7.12,15.59s1.62,10.92,4.88,14.51,10.26,8.49,21.04,14.68c11.17,6.3,18.6,11.9,22.29,16.79,3.7,4.89,5.54,10.52,5.54,16.88,0,9.12-3.18,16.56-9.54,22.31-6.36,5.75-15.35,8.63-26.96,8.63-4.11,0-8.85-.64-14.21-1.91-5.36-1.27-9.46-2.74-12.29-4.4h0ZM53.83,18.76h34.17V2H0v16.76h34.09v102.24h19.74V18.76ZM119.5,134.61l38.5-98.61h-19.5l-21.33,61.92c-.51,1.9-.9,3.44-1.19,4.64l-.31,1.34h-.42c-.44-1.9-.8-3.38-1.06-4.45l-.44-1.7-20.33-61.75h-21.42l33.92,84.83-5.75,13.95c-3.56,7.08-8.95,10.62-16.17,10.62-2.5,0-5.28-.5-8.33-1.49v16.02c2.72.72,6.11,1.08,10.17,1.08,14.45,0,25.67-8.8,33.67-26.39h0ZM189.65,108.41h-.33v51.59h-19.31V35.99h19.31v14.93h.33c6.6-11.28,16.26-16.92,28.97-16.92,10.82,0,19.26,3.79,25.31,11.36,6.05,7.58,9.07,17.75,9.07,30.52,0,14.16-3.41,25.49-10.24,34.01-6.83,8.52-16.15,12.77-27.97,12.77-10.88,0-19.26-4.76-25.14-14.27h0ZM189,85.89v-10.48c0-7.26,2.09-13.31,6.28-18.15,4.19-4.84,9.72-7.26,16.59-7.26,6.49,0,11.63,2.35,15.43,7.05,3.8,4.7,5.7,11.21,5.7,19.51,0,9.9-2.04,17.62-6.11,23.14-4.08,5.53-9.69,8.29-16.84,8.29-6.1,0-11.13-2.15-15.1-6.43s-5.95-9.52-5.95-15.68h0ZM340,83.73h-57.61c.22,7.86,2.63,13.92,7.22,18.18s10.91,6.39,18.94,6.39c9.02,0,17.3-2.71,24.84-8.14v15.52c-7.7,4.87-17.88,7.31-30.54,7.31s-22.19-3.86-29.26-11.58-10.6-18.58-10.6-32.59c0-13.23,3.89-24.01,11.68-32.34s17.46-12.5,29.01-12.5,20.49,3.74,26.82,11.21,9.49,17.85,9.49,31.13v7.39ZM317.15,53.79c3.18,3.86,4.8,9.26,4.85,16.21h-39c.88-6.56,3.22-11.86,7.03-15.92,3.81-4.06,8.46-6.08,13.95-6.08s9.98,1.93,13.16,5.79h0ZM461.91,123c8.81,0,16.4-1.93,22.76-5.8v-7.96c-6.36,4.53-13.83,6.79-22.42,6.79-9.37,0-16.92-3.34-22.63-10.03-5.72-6.68-8.58-15.52-8.58-26.52s3.12-20.65,9.37-27.8c6.25-7.15,14.39-10.73,24.43-10.73,7.31,0,14.03,1.88,20.16,5.64v-8.62c-6.14-2.65-12.47-3.98-18.99-3.98-12.61,0-22.93,4.29-30.96,12.89-8.03,8.59-12.05,19.63-12.05,33.11s3.57,23.19,10.71,31.12c7.14,7.93,16.54,11.89,28.2,11.89h0ZM535,43.67c-2.54-1.83-5.52-2.75-8.94-2.75-6.68,0-12.28,3.47-16.81,10.42-4.53,6.94-6.79,16.81-6.79,29.58v40.08h-7.45V35.67h7.45v18.92h.33c1.93-6.5,5-11.56,9.19-15.17s9.05-5.42,14.58-5.42c3.15,0,5.96.5,8.45,1.5v8.17ZM546.94,13.12c1.29,1.25,2.78,1.88,4.47,1.88,1.8,0,3.35-.66,4.64-1.97,1.29-1.31,1.94-2.88,1.94-4.7,0-1.94-.66-3.48-1.98-4.62-1.32-1.14-2.86-1.71-4.6-1.71-1.63,0-3.11.58-4.43,1.75-1.32,1.17-1.98,2.69-1.98,4.58s.65,3.54,1.94,4.79h0ZM547,121V36h8v85h-8ZM580.62,105.87h.33c6.08,11.44,15.47,17.16,28.17,17.16,11.38,0,20.54-4.38,27.47-13.14s10.4-20.24,10.4-34.44c0-12.76-3.03-22.87-9.07-30.3s-14.46-11.15-25.23-11.15c-6.79,0-13.02,1.7-18.69,5.1-5.66,3.4-10.01,8.22-13.05,14.47h-.33v-17.49h-7.62v123.93h7.62v-54.13ZM581,74.28v10.68c0,8.5,2.71,15.8,8.12,21.9,5.41,6.1,12.53,9.15,21.34,9.15s15.87-3.71,21.34-11.13c5.47-7.42,8.2-17.18,8.2-29.26,0-10.6-2.51-19.01-7.53-25.25-5.02-6.24-11.72-9.35-20.09-9.35-9.99,0-17.71,3.31-23.18,9.93-5.47,6.62-8.2,14.4-8.2,23.34ZM683.87,123c3.46,0,7.17-.94,11.13-2.81v-7.12c-3.63,2.04-7.01,3.06-10.14,3.06-4.4,0-7.51-1.31-9.35-3.93-1.84-2.62-2.76-6.86-2.76-12.71v-55.96h22.25v-6.95h-22.25V12c-1.21.44-2.47.86-3.79,1.24-1.32.44-2.58.88-3.79,1.32v22.02h-15.16v6.95h15.16v56.95c0,15.01,6.24,22.51,18.71,22.51h0Z" style="fill:#3178c6; fill-rule:evenodd;"/></svg>