<?xml version="1.0" encoding="UTF-8"?><svg id="a" xmlns="http://www.w3.org/2000/svg" viewBox="0 0 600 232"><defs><style>.b{fill:#262626;}.c{fill:#f08e33;}.d{fill:#26d926;}.e{fill:#f2f2f2;}</style></defs><rect class="b" width="600" height="232"/><g><path class="e" d="M67.91,162.49c-4.09-7.15-6.14-15.08-6.14-23.79h29.25c.65,6.37,2.93,11.41,6.83,15.11,3.9,3.71,9.36,5.56,16.38,5.56,6.5,0,11.86-1.92,16.09-5.75,4.23-3.83,6.34-8.68,6.34-14.53s-1.98-10.63-5.95-14.33c-3.97-3.71-9-5.56-15.11-5.56-6.63,0-13,1.24-19.11,3.71v-23.01l26.91-25.94h-57.14v-26.33h93.41v24.18l-30.42,27.89c12.22,.91,21.61,4.97,28.18,12.19,6.57,7.21,9.85,16.61,9.85,28.18,0,8.97-2.24,16.9-6.73,23.79-4.49,6.89-10.76,12.25-18.82,16.09s-17.29,5.75-27.69,5.75c-10.92,0-20.31-2.08-28.18-6.24-7.87-4.16-13.85-9.82-17.94-16.97Z"/><path class="d" d="M189.95,164.42c0-6.14,2.09-11.26,6.27-15.36,4.18-4.1,9.34-6.14,15.49-6.14s11.31,2.05,15.49,6.14c4.18,4.1,6.27,9.22,6.27,15.36s-2.09,11.26-6.27,15.36c-4.18,4.1-9.34,6.14-15.49,6.14s-11.31-2.05-15.49-6.14c-4.18-4.1-6.27-9.22-6.27-15.36Z"/><path class="e" d="M255.73,68.3c5.46-1.3,11.8-3.87,19.01-7.7,7.22-3.83,13.62-8.16,19.21-12.97h25.94V184.14h-31.01V81.17c-6.24,4.94-17.29,9.56-33.15,13.85v-26.72Z"/><path class="c" d="M354.28,164.42c0-6.14,2.09-11.26,6.27-15.36,4.18-4.1,9.34-6.14,15.49-6.14s11.31,2.05,15.49,6.14c4.18,4.1,6.27,9.22,6.27,15.36s-2.09,11.26-6.27,15.36c-4.18,4.1-9.34,6.14-15.49,6.14s-11.31-2.05-15.49-6.14c-4.18-4.1-6.27-9.22-6.27-15.36Z"/><path class="e" d="M431.08,152.74c-4.75-10.53-7.12-22.82-7.12-36.86s2.37-26.52,7.12-37.05c4.75-10.53,11.41-18.62,19.99-24.28s18.53-8.48,29.84-8.48,21.48,2.83,30.13,8.48,15.34,13.75,20.09,24.28c4.75,10.53,7.12,22.88,7.12,37.05s-2.37,26.33-7.12,36.86-11.47,18.66-20.18,24.38c-8.71,5.72-18.72,8.58-30.03,8.58s-21.26-2.86-29.84-8.58c-8.58-5.72-15.24-13.85-19.99-24.38Zm49.82,6.63c8.58,0,15.11-3.71,19.6-11.12,4.49-7.41,6.73-18.2,6.73-32.37s-2.24-24.96-6.73-32.37-11.02-11.12-19.6-11.12-14.92,3.71-19.4,11.12-6.73,18.2-6.73,32.37,2.24,24.96,6.73,32.37c4.49,7.41,10.95,11.12,19.4,11.12Z"/></g></svg>