<?xml version="1.0" encoding="UTF-8"?><svg id="a" xmlns="http://www.w3.org/2000/svg" xmlns:xlink="http://www.w3.org/1999/xlink" viewBox="0 0 360 145.08"><defs><linearGradient id="b" x1="20.49" y1="123.62" x2="339.51" y2="123.62" gradientUnits="userSpaceOnUse"><stop offset="0" stop-color="#00a4f2"/><stop offset="1" stop-color="#31c5ff"/></linearGradient></defs><rect y="1.08" width="360" height="144" style="fill:#333;"/><g><g><path d="M44.5,91.59l9.5-13.15c4.75,4.38,10.35,7.31,15.83,7.31,6.82,0,11.21-2.44,11.21-7.31,0-5.85-3.04-9.26-19.24-9.26v-14.62c12.91,0,16.81-3.41,16.81-8.77,0-4.63-2.8-7.06-8.04-7.06s-8.77,2.19-13.64,6.33l-10.47-12.67c7.55-6.33,15.59-9.99,25.09-9.99,17.05,0,28.01,7.79,28.01,21.8,0,7.43-4.14,13.03-12.42,16.69v.49c8.77,2.68,14.86,8.77,14.86,18.51,0,14.62-13.88,22.65-29.96,22.65-12.54,0-21.68-4.14-27.53-10.96Z" style="fill:#f2f2f2;"/><path d="M115.15,89.89c0-7.06,5.12-12.67,12.18-12.67s12.18,5.6,12.18,12.67-5.12,12.67-12.18,12.67-12.18-5.6-12.18-12.67Z" style="fill:#a743e3;"/><path d="M151.2,89.16c18.27-16.81,32.4-29.72,32.4-40.19,0-6.94-3.9-10.23-9.5-10.23-5.12,0-9.01,3.65-12.67,7.31l-11.21-11.21c8.04-8.53,15.35-12.42,26.79-12.42,15.59,0,26.55,9.99,26.55,25.33,0,12.42-11.69,26.06-22.17,36.78,3.9-.49,9.5-.97,12.91-.97h12.91v17.54h-56.03v-11.94Z" style="fill:#f2f2f2;"/><path d="M220.5,89.89c0-7.06,5.12-12.67,12.18-12.67s12.18,5.6,12.18,12.67-5.12,12.67-12.18,12.67-12.18-5.6-12.18-12.67Z" style="fill:#a743e3;"/><path d="M256.3,62.12c0-26.43,11.69-39.71,28.74-39.71s28.74,13.4,28.74,39.71-11.69,40.44-28.74,40.44-28.74-14.01-28.74-40.44Zm37.76,0c0-20.46-4.14-23.63-9.01-23.63s-9.01,3.17-9.01,23.63,4.14,24.36,9.01,24.36,9.01-3.9,9.01-24.36Z" style="fill:#f2f2f2;"/></g><line x1="27" y1="123.31" x2="333" y2="123.93" style="fill:none; stroke:url(#b); stroke-linecap:square; stroke-miterlimit:10; stroke-width:13px;"/></g></svg>