<?xml version="1.0" encoding="UTF-8"?><svg id="a" xmlns="http://www.w3.org/2000/svg" viewBox="0 0 144 72"><rect width="144" height="72" style="fill:#797fdb; stroke-width:0px;"/><path d="M9.72,60.45c2.5-3.09,5.6-4.96,9.35-5.88,3.44-.84,7.28-.66,10.61.75,1.86.79,3.79,2.33,5.71,3.35,2.55,1.35,5.21,1.9,8.06,1.3,4.7-.99,8.19-4.8,12.76-6.18s9.2-1.17,13.54.5c4.7,1.81,8.78,4.78,14.03,4.77,4.62,0,8.87-1.99,12.97-3.91,3.77-1.78,7.63-3.63,11.74-3.41,5.4.29,10.21,3.47,15.48,4.41s10.81.43,14.56-3.59c2.63-2.82-1.6-7.07-4.24-4.24-1.18,1.26-2.65,1.93-4.18,2.15-2.05.3-3.89.08-5.77-.36-5.02-1.18-9.57-3.69-14.76-4.27-4.83-.55-9.35,1.13-13.66,3.1-3.54,1.62-7.44,3.82-11.07,4.08-4.79.34-8.78-2.63-13.09-4.35-4.77-1.91-10.1-2.21-15.11-1.17-2.55.53-5.05,1.49-7.32,2.77-1.99,1.12-3.84,2.61-5.97,3.48-1.91.78-3.47.57-5.28-.44-2.16-1.21-4.11-2.65-6.42-3.61-8.85-3.65-20.11-.96-26.16,6.52-1.02,1.26-1.23,3.01,0,4.24,1.05,1.05,3.22,1.27,4.24,0h0Z" style="fill:#dbb25e; stroke-width:0px;"/><path d="M10.72,47.75c-1.2-2.1-1.8-4.42-1.8-6.98h8.58c.19,1.87.86,3.35,2,4.43,1.14,1.09,2.75,1.63,4.8,1.63,1.91,0,3.48-.56,4.72-1.69,1.24-1.12,1.86-2.54,1.86-4.26s-.58-3.12-1.74-4.2c-1.16-1.09-2.64-1.63-4.43-1.63-1.94,0-3.81.36-5.6,1.09v-6.75l7.89-7.61H10.23v-7.72h27.39v7.09l-8.92,8.18c3.58.27,6.34,1.46,8.26,3.58,1.93,2.12,2.89,4.87,2.89,8.26,0,2.63-.66,4.96-1.97,6.98-1.32,2.02-3.15,3.59-5.52,4.72-2.36,1.12-5.07,1.69-8.12,1.69-3.2,0-5.96-.61-8.26-1.83-2.31-1.22-4.06-2.88-5.26-4.98Z" style="fill:#45465c; stroke-width:0px;"/><path d="M43.23,49.7c0-1.37.47-2.52,1.4-3.43s2.09-1.37,3.46-1.37,2.53.46,3.46,1.37,1.4,2.06,1.4,3.43-.47,2.52-1.4,3.43-2.09,1.37-3.46,1.37-2.53-.46-3.46-1.37-1.4-2.06-1.4-3.43Z" style="fill:#45465c; stroke-width:0px;"/><path d="M57.96,47.75c-1.2-2.1-1.8-4.42-1.8-6.98h8.58c.19,1.87.86,3.35,2,4.43,1.14,1.09,2.75,1.63,4.8,1.63,1.91,0,3.48-.56,4.72-1.69s1.86-2.54,1.86-4.26-.58-3.12-1.74-4.2c-1.16-1.09-2.64-1.63-4.43-1.63-1.94,0-3.81.36-5.6,1.09v-6.75l7.89-7.61h-16.76v-7.72h27.39v7.09l-8.92,8.18c3.58.27,6.34,1.46,8.26,3.58,1.93,2.12,2.89,4.87,2.89,8.26,0,2.63-.66,4.96-1.97,6.98-1.32,2.02-3.16,3.59-5.52,4.72-2.36,1.12-5.07,1.69-8.12,1.69-3.2,0-5.96-.61-8.26-1.83-2.31-1.22-4.06-2.88-5.26-4.98Z" style="fill:#45465c; stroke-width:0px;"/><path d="M90.47,49.7c0-1.37.47-2.52,1.4-3.43.93-.92,2.09-1.37,3.46-1.37s2.53.46,3.46,1.37c.93.92,1.4,2.06,1.4,3.43s-.47,2.52-1.4,3.43c-.93.92-2.09,1.37-3.46,1.37s-2.53-.46-3.46-1.37c-.93-.92-1.4-2.06-1.4-3.43Z" style="fill:#45465c; stroke-width:0px;"/><path d="M104.71,45.61c-1.33-2.8-2-6-2-9.58,0-4.38.72-8.27,2.17-11.67,1.45-3.39,3.48-6.03,6.09-7.92,2.61-1.89,5.61-2.83,9.01-2.83,4.08,0,7.42,1.07,10.04,3.2,2.61,2.14,4.07,5.01,4.38,8.64h-8.58c-.19-1.33-.82-2.4-1.89-3.2-1.07-.8-2.38-1.2-3.95-1.2-2.36,0-4.25.96-5.66,2.89-1.41,1.93-2.29,4.36-2.63,7.29.99-1.18,2.24-2.08,3.75-2.69,1.51-.61,3.17-.92,5-.92,2.63,0,5,.58,7.12,1.74,2.12,1.16,3.77,2.76,4.98,4.8,1.2,2.04,1.8,4.34,1.8,6.89s-.65,4.86-1.94,6.92c-1.3,2.06-3.1,3.67-5.4,4.83-2.31,1.16-4.89,1.75-7.75,1.75-3.36,0-6.28-.79-8.78-2.37-2.5-1.58-4.41-3.77-5.75-6.58ZM119.07,47.18c1.94,0,3.52-.6,4.72-1.8,1.2-1.2,1.8-2.75,1.8-4.66s-.61-3.38-1.83-4.55c-1.22-1.16-2.78-1.74-4.69-1.74s-3.47.6-4.69,1.8-1.83,2.74-1.83,4.6.61,3.39,1.83,4.58c1.22,1.18,2.78,1.77,4.69,1.77Z" style="fill:#45465c; stroke-width:0px;"/><g style="opacity:0;"><path d="M10.89,47.75c-1.2-2.1-1.8-4.42-1.8-6.98h8.58c.19,1.87.86,3.35,2,4.43,1.14,1.09,2.75,1.63,4.8,1.63,1.91,0,3.48-.56,4.72-1.69,1.24-1.12,1.86-2.54,1.86-4.26s-.58-3.12-1.74-4.2c-1.16-1.09-2.64-1.63-4.43-1.63-1.94,0-3.81.36-5.6,1.09v-6.75l7.89-7.61H10.4v-7.72h27.39v7.09l-8.92,8.18c3.58.27,6.34,1.46,8.26,3.58,1.93,2.12,2.89,4.87,2.89,8.26,0,2.63-.66,4.96-1.97,6.98-1.32,2.02-3.15,3.59-5.52,4.72-2.36,1.12-5.07,1.69-8.12,1.69-3.2,0-5.96-.61-8.26-1.83-2.31-1.22-4.06-2.88-5.26-4.98Z" style="fill:#45465c; stroke-width:0px;"/><path d="M43.4,49.7c0-1.37.47-2.52,1.4-3.43s2.09-1.37,3.46-1.37,2.53.46,3.46,1.37,1.4,2.06,1.4,3.43-.47,2.52-1.4,3.43-2.09,1.37-3.46,1.37-2.53-.46-3.46-1.37-1.4-2.06-1.4-3.43Z" style="fill:#45465c; stroke-width:0px;"/><path d="M58.13,47.75c-1.2-2.1-1.8-4.42-1.8-6.98h8.58c.19,1.87.86,3.35,2,4.43,1.14,1.09,2.75,1.63,4.8,1.63,1.91,0,3.48-.56,4.72-1.69s1.86-2.54,1.86-4.26-.58-3.12-1.74-4.2c-1.16-1.09-2.64-1.63-4.43-1.63-1.94,0-3.81.36-5.6,1.09v-6.75l7.89-7.61h-16.76v-7.72h27.39v7.09l-8.92,8.18c3.58.27,6.34,1.46,8.26,3.58,1.93,2.12,2.89,4.87,2.89,8.26,0,2.63-.66,4.96-1.97,6.98-1.32,2.02-3.16,3.59-5.52,4.72-2.36,1.12-5.07,1.69-8.12,1.69-3.2,0-5.96-.61-8.26-1.83-2.31-1.22-4.06-2.88-5.26-4.98Z" style="fill:#45465c; stroke-width:0px;"/><path d="M90.65,49.7c0-1.37.47-2.52,1.4-3.43.93-.92,2.09-1.37,3.46-1.37s2.53.46,3.46,1.37c.93.92,1.4,2.06,1.4,3.43s-.47,2.52-1.4,3.43c-.93.92-2.09,1.37-3.46,1.37s-2.53-.46-3.46-1.37c-.93-.92-1.4-2.06-1.4-3.43Z" style="fill:#45465c; stroke-width:0px;"/><path d="M105.37,47.75c-1.2-2.1-1.8-4.42-1.8-6.98h8.58c.19,1.87.86,3.35,2,4.43,1.14,1.09,2.75,1.63,4.8,1.63,1.91,0,3.48-.56,4.72-1.69s1.86-2.54,1.86-4.26-.58-3.12-1.75-4.2c-1.16-1.09-2.64-1.63-4.43-1.63-1.94,0-3.81.36-5.6,1.09v-6.75l7.89-7.61h-16.76v-7.72h27.39v7.09l-8.92,8.18c3.58.27,6.34,1.46,8.26,3.58,1.92,2.12,2.89,4.87,2.89,8.26,0,2.63-.66,4.96-1.97,6.98-1.32,2.02-3.16,3.59-5.52,4.72-2.36,1.12-5.07,1.69-8.12,1.69-3.2,0-5.96-.61-8.26-1.83-2.31-1.22-4.06-2.88-5.26-4.98Z" style="fill:#45465c; stroke-width:0px;"/></g></svg>