<?xml version="1.0" encoding="UTF-8"?><svg id="a" xmlns="http://www.w3.org/2000/svg" viewBox="0 0 144 72"><rect width="144" height="72" style="fill:#797fdb; stroke-width:0px;"/><path d="M9.72,60.45c2.5-3.09,5.6-4.96,9.35-5.88,3.44-.84,7.28-.66,10.61.75,1.86.79,3.79,2.33,5.71,3.35,2.55,1.35,5.21,1.9,8.06,1.3,4.7-.99,8.19-4.8,12.76-6.18s9.2-1.17,13.54.5c4.7,1.81,8.78,4.78,14.03,4.77,4.62,0,8.87-1.99,12.97-3.91,3.77-1.78,7.63-3.63,11.74-3.41,5.4.29,10.21,3.47,15.48,4.41s10.81.43,14.56-3.59c2.63-2.82-1.6-7.07-4.24-4.24-1.18,1.26-2.65,1.93-4.18,2.15-2.05.3-3.89.08-5.77-.36-5.02-1.18-9.57-3.69-14.76-4.27-4.83-.55-9.35,1.13-13.66,3.1-3.54,1.62-7.44,3.82-11.07,4.08-4.79.34-8.78-2.63-13.09-4.35-4.77-1.91-10.1-2.21-15.11-1.17-2.55.53-5.05,1.49-7.32,2.77-1.99,1.12-3.84,2.61-5.97,3.48-1.91.78-3.47.57-5.28-.44-2.16-1.21-4.11-2.65-6.42-3.61-8.85-3.65-20.11-.96-26.16,6.52-1.02,1.26-1.23,3.01,0,4.24,1.05,1.05,3.22,1.27,4.24,0h0Z" style="fill:#dbb25e; stroke-width:0px;"/><g style="opacity:0;"><path d="M9.94,47.75c-1.2-2.1-1.8-4.42-1.8-6.98h8.58c.19,1.87.86,3.35,2,4.43,1.14,1.09,2.75,1.63,4.8,1.63,1.91,0,3.48-.56,4.72-1.69,1.24-1.12,1.86-2.54,1.86-4.26s-.58-3.12-1.74-4.2c-1.16-1.09-2.64-1.63-4.43-1.63-1.94,0-3.81.36-5.6,1.09v-6.75l7.89-7.61H9.46v-7.72h27.39v7.09l-8.92,8.18c3.58.27,6.34,1.46,8.26,3.58,1.93,2.12,2.89,4.87,2.89,8.26,0,2.63-.66,4.96-1.97,6.98-1.32,2.02-3.15,3.59-5.52,4.72-2.36,1.12-5.07,1.69-8.12,1.69-3.2,0-5.96-.61-8.26-1.83-2.31-1.22-4.06-2.88-5.26-4.98Z" style="fill:#7077db; stroke-width:0px;"/><path d="M42.46,49.7c0-1.37.47-2.52,1.4-3.43s2.09-1.37,3.46-1.37,2.53.46,3.46,1.37,1.4,2.06,1.4,3.43-.47,2.52-1.4,3.43-2.09,1.37-3.46,1.37-2.53-.46-3.46-1.37-1.4-2.06-1.4-3.43Z" style="fill:#7077db; stroke-width:0px;"/><path d="M57.19,47.75c-1.2-2.1-1.8-4.42-1.8-6.98h8.58c.19,1.87.86,3.35,2,4.43,1.14,1.09,2.75,1.63,4.8,1.63,1.91,0,3.48-.56,4.72-1.69s1.86-2.54,1.86-4.26-.58-3.12-1.74-4.2c-1.16-1.09-2.64-1.63-4.43-1.63-1.94,0-3.81.36-5.6,1.09v-6.75l7.89-7.61h-16.76v-7.72h27.39v7.09l-8.92,8.18c3.58.27,6.34,1.46,8.26,3.58,1.93,2.12,2.89,4.87,2.89,8.26,0,2.63-.66,4.96-1.97,6.98-1.32,2.02-3.16,3.59-5.52,4.72-2.36,1.12-5.07,1.69-8.12,1.69-3.2,0-5.96-.61-8.26-1.83-2.31-1.22-4.06-2.88-5.26-4.98Z" style="fill:#7077db; stroke-width:0px;"/><path d="M89.7,49.7c0-1.37.47-2.52,1.4-3.43.93-.92,2.09-1.37,3.46-1.37s2.53.46,3.46,1.37c.93.92,1.4,2.06,1.4,3.43s-.47,2.52-1.4,3.43c-.93.92-2.09,1.37-3.46,1.37s-2.53-.46-3.46-1.37c-.93-.92-1.4-2.06-1.4-3.43Z" style="fill:#7077db; stroke-width:0px;"/><path d="M103.86,44.89c-1.39-3.09-2.09-6.69-2.09-10.81s.7-7.78,2.09-10.87c1.39-3.09,3.35-5.46,5.86-7.12,2.52-1.66,5.43-2.49,8.75-2.49s6.3.83,8.84,2.49c2.54,1.66,4.5,4.03,5.89,7.12,1.39,3.09,2.09,6.71,2.09,10.87s-.7,7.72-2.09,10.81c-1.39,3.09-3.37,5.47-5.92,7.15-2.55,1.68-5.49,2.52-8.81,2.52s-6.23-.84-8.75-2.52-4.47-4.06-5.86-7.15ZM118.47,46.84c2.52,0,4.43-1.09,5.75-3.26,1.32-2.17,1.97-5.34,1.97-9.49s-.66-7.32-1.97-9.49c-1.32-2.17-3.23-3.26-5.75-3.26s-4.38,1.09-5.69,3.26c-1.32,2.17-1.97,5.34-1.97,9.49s.66,7.32,1.97,9.49c1.32,2.17,3.21,3.26,5.69,3.26Z" style="fill:#7077db; stroke-width:0px;"/></g><path d="M10.23,49.67c-1.2-2.1-1.8-4.42-1.8-6.98h8.58c.19,1.87.86,3.35,2,4.43,1.14,1.09,2.75,1.63,4.8,1.63,1.91,0,3.48-.56,4.72-1.69,1.24-1.12,1.86-2.54,1.86-4.26s-.58-3.12-1.74-4.2c-1.16-1.09-2.64-1.63-4.43-1.63-1.94,0-3.81.36-5.6,1.09v-6.75l7.89-7.61H9.75v-7.72h27.39v7.09l-8.92,8.18c3.58.27,6.34,1.46,8.26,3.58,1.93,2.12,2.89,4.87,2.89,8.26,0,2.63-.66,4.96-1.97,6.98-1.32,2.02-3.15,3.59-5.52,4.72-2.36,1.12-5.07,1.69-8.12,1.69-3.2,0-5.96-.61-8.26-1.83-2.31-1.22-4.06-2.88-5.26-4.98Z" style="fill:#45465c; stroke-width:0px;"/><path d="M42.75,51.61c0-1.37.47-2.52,1.4-3.43s2.09-1.37,3.46-1.37,2.53.46,3.46,1.37,1.4,2.06,1.4,3.43-.47,2.52-1.4,3.43-2.09,1.37-3.46,1.37-2.53-.46-3.46-1.37-1.4-2.06-1.4-3.43Z" style="fill:#45465c; stroke-width:0px;"/><path d="M57.47,49.67c-1.2-2.1-1.8-4.42-1.8-6.98h8.58c.19,1.87.86,3.35,2,4.43,1.14,1.09,2.75,1.63,4.8,1.63,1.91,0,3.48-.56,4.72-1.69s1.86-2.54,1.86-4.26-.58-3.12-1.74-4.2c-1.16-1.09-2.64-1.63-4.43-1.63-1.94,0-3.81.36-5.6,1.09v-6.75l7.89-7.61h-16.76v-7.72h27.39v7.09l-8.92,8.18c3.58.27,6.34,1.46,8.26,3.58,1.93,2.12,2.89,4.87,2.89,8.26,0,2.63-.66,4.96-1.97,6.98-1.32,2.02-3.16,3.59-5.52,4.72-2.36,1.12-5.07,1.69-8.12,1.69-3.2,0-5.96-.61-8.26-1.83-2.31-1.22-4.06-2.88-5.26-4.98Z" style="fill:#45465c; stroke-width:0px;"/><path d="M89.99,51.61c0-1.37.47-2.52,1.4-3.43.93-.92,2.09-1.37,3.46-1.37s2.53.46,3.46,1.37c.93.92,1.4,2.06,1.4,3.43s-.47,2.52-1.4,3.43c-.93.92-2.09,1.37-3.46,1.37s-2.53-.46-3.46-1.37c-.93-.92-1.4-2.06-1.4-3.43Z" style="fill:#45465c; stroke-width:0px;"/><path d="M104.14,46.81c-1.39-3.09-2.09-6.69-2.09-10.81s.7-7.78,2.09-10.87c1.39-3.09,3.35-5.46,5.86-7.12,2.52-1.66,5.43-2.49,8.75-2.49s6.3.83,8.84,2.49c2.54,1.66,4.5,4.03,5.89,7.12,1.39,3.09,2.09,6.71,2.09,10.87s-.7,7.72-2.09,10.81c-1.39,3.09-3.37,5.47-5.92,7.15-2.55,1.68-5.49,2.52-8.81,2.52s-6.23-.84-8.75-2.52-4.47-4.06-5.86-7.15ZM118.76,48.75c2.52,0,4.43-1.09,5.75-3.26,1.32-2.17,1.97-5.34,1.97-9.49s-.66-7.32-1.97-9.49c-1.32-2.17-3.23-3.26-5.75-3.26s-4.38,1.09-5.69,3.26c-1.32,2.17-1.97,5.34-1.97,9.49s.66,7.32,1.97,9.49c1.32,2.17,3.21,3.26,5.69,3.26Z" style="fill:#45465c; stroke-width:0px;"/></svg>