<?xml version="1.0" encoding="UTF-8"?><svg id="a" xmlns="http://www.w3.org/2000/svg" viewBox="0 0 144 72"><rect width="144" height="72" style="fill:#797fdb; stroke-width:0px;"/><path d="M9.72,60.45c2.5-3.09,5.6-4.96,9.35-5.88,3.44-.84,7.28-.66,10.61.75,1.86.79,3.79,2.33,5.71,3.35,2.55,1.35,5.21,1.9,8.06,1.3,4.7-.99,8.19-4.8,12.76-6.18s9.2-1.17,13.54.5c4.7,1.81,8.78,4.78,14.03,4.77,4.62,0,8.87-1.99,12.97-3.91,3.77-1.78,7.63-3.63,11.74-3.41,5.4.29,10.21,3.47,15.48,4.41s10.81.43,14.56-3.59c2.63-2.82-1.6-7.07-4.24-4.24-1.18,1.26-2.65,1.93-4.18,2.15-2.05.3-3.89.08-5.77-.36-5.02-1.18-9.57-3.69-14.76-4.27-4.83-.55-9.35,1.13-13.66,3.1-3.54,1.62-7.44,3.82-11.07,4.08-4.79.34-8.78-2.63-13.09-4.35-4.77-1.91-10.1-2.21-15.11-1.17-2.55.53-5.05,1.49-7.32,2.77-1.99,1.12-3.84,2.61-5.97,3.48-1.91.78-3.47.57-5.28-.44-2.16-1.21-4.11-2.65-6.42-3.61-8.85-3.65-20.11-.96-26.16,6.52-1.02,1.26-1.23,3.01,0,4.24,1.05,1.05,3.22,1.27,4.24,0h0Z" style="fill:#dbb25e; stroke-width:0px;"/><g style="opacity:0;"><path d="M10.89,47.75c-1.2-2.1-1.8-4.42-1.8-6.98h8.58c.19,1.87.86,3.35,2,4.43,1.14,1.09,2.75,1.63,4.8,1.63,1.91,0,3.48-.56,4.72-1.69,1.24-1.12,1.86-2.54,1.86-4.26s-.58-3.12-1.74-4.2c-1.16-1.09-2.64-1.63-4.43-1.63-1.94,0-3.81.36-5.6,1.09v-6.75l7.89-7.61H10.4v-7.72h27.39v7.09l-8.92,8.18c3.58.27,6.34,1.46,8.26,3.58,1.93,2.12,2.89,4.87,2.89,8.26,0,2.63-.66,4.96-1.97,6.98-1.32,2.02-3.15,3.59-5.52,4.72-2.36,1.12-5.07,1.69-8.12,1.69-3.2,0-5.96-.61-8.26-1.83-2.31-1.22-4.06-2.88-5.26-4.98Z" style="fill:#45465c; stroke-width:0px;"/><path d="M43.4,49.7c0-1.37.47-2.52,1.4-3.43s2.09-1.37,3.46-1.37,2.53.46,3.46,1.37,1.4,2.06,1.4,3.43-.47,2.52-1.4,3.43-2.09,1.37-3.46,1.37-2.53-.46-3.46-1.37-1.4-2.06-1.4-3.43Z" style="fill:#45465c; stroke-width:0px;"/><path d="M58.13,47.75c-1.2-2.1-1.8-4.42-1.8-6.98h8.58c.19,1.87.86,3.35,2,4.43,1.14,1.09,2.75,1.63,4.8,1.63,1.91,0,3.48-.56,4.72-1.69s1.86-2.54,1.86-4.26-.58-3.12-1.74-4.2c-1.16-1.09-2.64-1.63-4.43-1.63-1.94,0-3.81.36-5.6,1.09v-6.75l7.89-7.61h-16.76v-7.72h27.39v7.09l-8.92,8.18c3.58.27,6.34,1.46,8.26,3.58,1.93,2.12,2.89,4.87,2.89,8.26,0,2.63-.66,4.96-1.97,6.98-1.32,2.02-3.16,3.59-5.52,4.72-2.36,1.12-5.07,1.69-8.12,1.69-3.2,0-5.96-.61-8.26-1.83-2.31-1.22-4.06-2.88-5.26-4.98Z" style="fill:#45465c; stroke-width:0px;"/><path d="M90.65,49.7c0-1.37.47-2.52,1.4-3.43.93-.92,2.09-1.37,3.46-1.37s2.53.46,3.46,1.37c.93.92,1.4,2.06,1.4,3.43s-.47,2.52-1.4,3.43c-.93.92-2.09,1.37-3.46,1.37s-2.53-.46-3.46-1.37c-.93-.92-1.4-2.06-1.4-3.43Z" style="fill:#45465c; stroke-width:0px;"/><path d="M105.37,47.75c-1.2-2.1-1.8-4.42-1.8-6.98h8.58c.19,1.87.86,3.35,2,4.43,1.14,1.09,2.75,1.63,4.8,1.63,1.91,0,3.48-.56,4.72-1.69s1.86-2.54,1.86-4.26-.58-3.12-1.75-4.2c-1.16-1.09-2.64-1.63-4.43-1.63-1.94,0-3.81.36-5.6,1.09v-6.75l7.89-7.61h-16.76v-7.72h27.39v7.09l-8.92,8.18c3.58.27,6.34,1.46,8.26,3.58,1.92,2.12,2.89,4.87,2.89,8.26,0,2.63-.66,4.96-1.97,6.98-1.32,2.02-3.16,3.59-5.52,4.72-2.36,1.12-5.07,1.69-8.12,1.69-3.2,0-5.96-.61-8.26-1.83-2.31-1.22-4.06-2.88-5.26-4.98Z" style="fill:#45465c; stroke-width:0px;"/></g><path d="M11.49,49.67c-1.2-2.1-1.8-4.42-1.8-6.98h8.58c.19,1.87.86,3.35,2,4.43,1.14,1.09,2.75,1.63,4.8,1.63,1.91,0,3.48-.56,4.72-1.69,1.24-1.12,1.86-2.54,1.86-4.26s-.58-3.12-1.74-4.2c-1.16-1.09-2.64-1.63-4.43-1.63-1.94,0-3.81.36-5.6,1.09v-6.75l7.89-7.61H11v-7.72h27.39v7.09l-8.92,8.18c3.58.27,6.34,1.46,8.26,3.58,1.93,2.12,2.89,4.87,2.89,8.26,0,2.63-.66,4.96-1.97,6.98-1.32,2.02-3.15,3.59-5.52,4.72-2.36,1.12-5.07,1.69-8.12,1.69-3.2,0-5.96-.61-8.26-1.83-2.31-1.22-4.06-2.88-5.26-4.98Z" style="fill:#45465c; stroke-width:0px;"/><path d="M44,51.61c0-1.37.47-2.52,1.4-3.43s2.09-1.37,3.46-1.37,2.53.46,3.46,1.37,1.4,2.06,1.4,3.43-.47,2.52-1.4,3.43-2.09,1.37-3.46,1.37-2.53-.46-3.46-1.37-1.4-2.06-1.4-3.43Z" style="fill:#45465c; stroke-width:0px;"/><path d="M58.73,49.67c-1.2-2.1-1.8-4.42-1.8-6.98h8.58c.19,1.87.86,3.35,2,4.43,1.14,1.09,2.75,1.63,4.8,1.63,1.91,0,3.48-.56,4.72-1.69s1.86-2.54,1.86-4.26-.58-3.12-1.74-4.2c-1.16-1.09-2.64-1.63-4.43-1.63-1.94,0-3.81.36-5.6,1.09v-6.75l7.89-7.61h-16.76v-7.72h27.39v7.09l-8.92,8.18c3.58.27,6.34,1.46,8.26,3.58,1.93,2.12,2.89,4.87,2.89,8.26,0,2.63-.66,4.96-1.97,6.98-1.32,2.02-3.16,3.59-5.52,4.72-2.36,1.12-5.07,1.69-8.12,1.69-3.2,0-5.96-.61-8.26-1.83-2.31-1.22-4.06-2.88-5.26-4.98Z" style="fill:#45465c; stroke-width:0px;"/><path d="M91.25,51.61c0-1.37.47-2.52,1.4-3.43.93-.92,2.09-1.37,3.46-1.37s2.53.46,3.46,1.37c.93.92,1.4,2.06,1.4,3.43s-.47,2.52-1.4,3.43c-.93.92-2.09,1.37-3.46,1.37s-2.53-.46-3.46-1.37c-.93-.92-1.4-2.06-1.4-3.43Z" style="fill:#45465c; stroke-width:0px;"/><path d="M106.37,50.9c-1.35-1.77-2.03-3.82-2.03-6.15s.64-4.2,1.92-5.98c1.28-1.77,2.91-3,4.89-3.69-1.53-.65-2.78-1.76-3.77-3.35s-1.49-3.29-1.49-5.12c0-1.98.57-3.82,1.72-5.52s2.75-3.05,4.8-4.06c2.06-1.01,4.37-1.52,6.92-1.52s4.86.5,6.92,1.52c2.06,1.01,3.66,2.36,4.8,4.06s1.72,3.54,1.72,5.52c0,1.83-.5,3.54-1.49,5.12s-2.25,2.7-3.77,3.35c1.98.69,3.61,1.92,4.89,3.69,1.28,1.77,1.92,3.77,1.92,5.98,0,2.33-.68,4.38-2.03,6.15-1.35,1.77-3.17,3.15-5.46,4.12-2.29.97-4.79,1.46-7.49,1.46s-5.2-.49-7.49-1.46c-2.29-.97-4.11-2.34-5.46-4.12ZM119.33,49.32c1.87,0,3.38-.46,4.55-1.37s1.74-2.1,1.74-3.55c0-1.53-.58-2.75-1.74-3.66s-2.68-1.37-4.55-1.37-3.38.46-4.55,1.37-1.74,2.13-1.74,3.66.58,2.63,1.74,3.55,2.68,1.37,4.55,1.37ZM119.33,31.54c1.56,0,2.83-.41,3.8-1.23.97-.82,1.46-1.9,1.46-3.23s-.48-2.42-1.43-3.26c-.95-.84-2.23-1.26-3.83-1.26s-2.88.42-3.83,1.26c-.95.84-1.43,1.93-1.43,3.26s.49,2.41,1.46,3.23c.97.82,2.24,1.23,3.8,1.23Z" style="fill:#45465c; stroke-width:0px;"/></svg>