<?xml version="1.0" encoding="UTF-8"?><svg id="a" xmlns="http://www.w3.org/2000/svg" viewBox="0 0 144 72"><rect width="144" height="72" style="fill:#797fdb; stroke-width:0px;"/><path d="M9.72,60.45c2.5-3.09,5.6-4.96,9.35-5.88,3.44-.84,7.28-.66,10.61.75,1.86.79,3.79,2.33,5.71,3.35,2.55,1.35,5.21,1.9,8.06,1.3,4.7-.99,8.19-4.8,12.76-6.18s9.2-1.17,13.54.5c4.7,1.81,8.78,4.78,14.03,4.77,4.62,0,8.87-1.99,12.97-3.91,3.77-1.78,7.63-3.63,11.74-3.41,5.4.29,10.21,3.47,15.48,4.41s10.81.43,14.56-3.59c2.63-2.82-1.6-7.07-4.24-4.24-1.18,1.26-2.65,1.93-4.18,2.15-2.05.3-3.89.08-5.77-.36-5.02-1.18-9.57-3.69-14.76-4.27-4.83-.55-9.35,1.13-13.66,3.1-3.54,1.62-7.44,3.82-11.07,4.08-4.79.34-8.78-2.63-13.09-4.35-4.77-1.91-10.1-2.21-15.11-1.17-2.55.53-5.05,1.49-7.32,2.77-1.99,1.12-3.84,2.61-5.97,3.48-1.91.78-3.47.57-5.28-.44-2.16-1.21-4.11-2.65-6.42-3.61-8.85-3.65-20.11-.96-26.16,6.52-1.02,1.26-1.23,3.01,0,4.24,1.05,1.05,3.22,1.27,4.24,0h0Z" style="fill:#dbb25e; stroke-width:0px;"/><path d="M11.6,49.44c-1.2-2.1-1.8-4.42-1.8-6.98h8.58c.19,1.87.86,3.35,2,4.43,1.14,1.09,2.75,1.63,4.8,1.63,1.91,0,3.48-.56,4.72-1.69,1.24-1.12,1.86-2.54,1.86-4.26s-.58-3.12-1.74-4.2c-1.16-1.09-2.64-1.63-4.43-1.63-1.94,0-3.81.36-5.6,1.09v-6.75l7.89-7.61H11.12v-7.72h27.39v7.09l-8.92,8.18c3.58.27,6.34,1.46,8.26,3.58,1.93,2.12,2.89,4.87,2.89,8.26,0,2.63-.66,4.96-1.97,6.98-1.32,2.02-3.15,3.59-5.52,4.72-2.36,1.12-5.07,1.69-8.12,1.69-3.2,0-5.96-.61-8.26-1.83-2.31-1.22-4.06-2.88-5.26-4.98Z" style="fill:#45465c; stroke-width:0px;"/><path d="M44.12,51.38c0-1.37.47-2.52,1.4-3.43s2.09-1.37,3.46-1.37,2.53.46,3.46,1.37,1.4,2.06,1.4,3.43-.47,2.52-1.4,3.43-2.09,1.37-3.46,1.37-2.53-.46-3.46-1.37-1.4-2.06-1.4-3.43Z" style="fill:#45465c; stroke-width:0px;"/><path d="M58.85,49.44c-1.2-2.1-1.8-4.42-1.8-6.98h8.58c.19,1.87.86,3.35,2,4.43,1.14,1.09,2.75,1.63,4.8,1.63,1.91,0,3.48-.56,4.72-1.69s1.86-2.54,1.86-4.26-.58-3.12-1.74-4.2c-1.16-1.09-2.64-1.63-4.43-1.63-1.94,0-3.81.36-5.6,1.09v-6.75l7.89-7.61h-16.76v-7.72h27.39v7.09l-8.92,8.18c3.58.27,6.34,1.46,8.26,3.58,1.93,2.12,2.89,4.87,2.89,8.26,0,2.63-.66,4.96-1.97,6.98-1.32,2.02-3.16,3.59-5.52,4.72-2.36,1.12-5.07,1.69-8.12,1.69-3.2,0-5.96-.61-8.26-1.83-2.31-1.22-4.06-2.88-5.26-4.98Z" style="fill:#45465c; stroke-width:0px;"/><path d="M91.36,51.38c0-1.37.47-2.52,1.4-3.43.93-.92,2.09-1.37,3.46-1.37s2.53.46,3.46,1.37c.93.92,1.4,2.06,1.4,3.43s-.47,2.52-1.4,3.43c-.93.92-2.09,1.37-3.46,1.37s-2.53-.46-3.46-1.37c-.93-.92-1.4-2.06-1.4-3.43Z" style="fill:#45465c; stroke-width:0px;"/><path d="M106.26,49.95c-1.28-1.95-1.97-4.14-2.09-6.58h8.58c.19,1.56.84,2.81,1.94,3.75,1.11.93,2.55,1.4,4.35,1.4s3.32-.58,4.46-1.75c1.14-1.16,1.72-2.66,1.72-4.49s-.57-3.33-1.72-4.49c-1.14-1.16-2.63-1.74-4.46-1.74-1.26,0-2.38.27-3.38.8-.99.53-1.77,1.28-2.34,2.23h-8.29l3.43-23.33h22.65v7.72h-15.84l-1.43,8.58c.88-.88,1.96-1.56,3.26-2.06,1.3-.5,2.71-.74,4.23-.74,2.48,0,4.69.55,6.63,1.66,1.94,1.11,3.47,2.64,4.58,4.6,1.11,1.96,1.66,4.22,1.66,6.78,0,2.75-.62,5.18-1.86,7.29s-3,3.76-5.29,4.92c-2.29,1.16-4.96,1.75-8.01,1.75-2.82,0-5.34-.56-7.55-1.69-2.21-1.12-3.96-2.66-5.23-4.6Z" style="fill:#45465c; stroke-width:0px;"/><g style="opacity:0;"><path d="M14.31,50.66c-1.2-2.1-1.8-4.42-1.8-6.98h8.58c.19,1.87.86,3.35,2,4.43,1.14,1.09,2.75,1.63,4.8,1.63,1.91,0,3.48-.56,4.72-1.69,1.24-1.12,1.86-2.54,1.86-4.26s-.58-3.12-1.74-4.2c-1.16-1.09-2.64-1.63-4.43-1.63-1.94,0-3.81.36-5.6,1.09v-6.75l7.89-7.61H13.83v-7.72h27.39v7.09l-8.92,8.18c3.58.27,6.34,1.46,8.26,3.58,1.93,2.12,2.89,4.87,2.89,8.26,0,2.63-.66,4.96-1.97,6.98-1.32,2.02-3.15,3.59-5.52,4.72-2.36,1.12-5.07,1.69-8.12,1.69-3.2,0-5.96-.61-8.26-1.83-2.31-1.22-4.06-2.88-5.26-4.98Z" style="fill:#45465c; stroke-width:0px;"/><path d="M46.83,52.6c0-1.37.47-2.52,1.4-3.43s2.09-1.37,3.46-1.37,2.53.46,3.46,1.37,1.4,2.06,1.4,3.43-.47,2.52-1.4,3.43-2.09,1.37-3.46,1.37-2.53-.46-3.46-1.37-1.4-2.06-1.4-3.43Z" style="fill:#45465c; stroke-width:0px;"/><path d="M61.55,50.66c-1.2-2.1-1.8-4.42-1.8-6.98h8.58c.19,1.87.86,3.35,2,4.43,1.14,1.09,2.75,1.63,4.8,1.63,1.91,0,3.48-.56,4.72-1.69s1.86-2.54,1.86-4.26-.58-3.12-1.74-4.2c-1.16-1.09-2.64-1.63-4.43-1.63-1.94,0-3.81.36-5.6,1.09v-6.75l7.89-7.61h-16.76v-7.72h27.39v7.09l-8.92,8.18c3.58.27,6.34,1.46,8.26,3.58,1.93,2.12,2.89,4.87,2.89,8.26,0,2.63-.66,4.96-1.97,6.98-1.32,2.02-3.16,3.59-5.52,4.72-2.36,1.12-5.07,1.69-8.12,1.69-3.2,0-5.96-.61-8.26-1.83-2.31-1.22-4.06-2.88-5.26-4.98Z" style="fill:#45465c; stroke-width:0px;"/><path d="M94.07,52.6c0-1.37.47-2.52,1.4-3.43.93-.92,2.09-1.37,3.46-1.37s2.53.46,3.46,1.37c.93.92,1.4,2.06,1.4,3.43s-.47,2.52-1.4,3.43c-.93.92-2.09,1.37-3.46,1.37s-2.53-.46-3.46-1.37c-.93-.92-1.4-2.06-1.4-3.43Z" style="fill:#45465c; stroke-width:0px;"/><path d="M108.8,50.66c-1.2-2.1-1.8-4.42-1.8-6.98h8.58c.19,1.87.86,3.35,2,4.43,1.14,1.09,2.75,1.63,4.8,1.63,1.91,0,3.48-.56,4.72-1.69s1.86-2.54,1.86-4.26-.58-3.12-1.75-4.2c-1.16-1.09-2.64-1.63-4.43-1.63-1.94,0-3.81.36-5.6,1.09v-6.75l7.89-7.61h-16.76v-7.72h27.39v7.09l-8.92,8.18c3.58.27,6.34,1.46,8.26,3.58,1.92,2.12,2.89,4.87,2.89,8.26,0,2.63-.66,4.96-1.97,6.98-1.32,2.02-3.16,3.59-5.52,4.72-2.36,1.12-5.07,1.69-8.12,1.69-3.2,0-5.96-.61-8.26-1.83-2.31-1.22-4.06-2.88-5.26-4.98Z" style="fill:#45465c; stroke-width:0px;"/></g></svg>