<?xml version="1.0" encoding="UTF-8"?><svg id="a" xmlns="http://www.w3.org/2000/svg" viewBox="0 0 288 144"><rect width="288" height="144" style="fill:#1c1929;"/><path d="M288,0H0v72c15.03,6.12,40.46,14.48,72,14,55.42-.84,79.74-28.18,135-30,17.95-.59,45.9,1.29,81,16V0Z" style="fill:#110f19;"/><g style="opacity:0;"><path d="M32.2,52.65c1.02-8.07,7.02-18.42,24.21-18.42,15.77,0,23.08,8.41,23.08,18.04,0,8.15-5.16,11.7-8.44,13.08v.25c4.36,1.56,11,5.52,11,15.76s-7.14,20.55-25.79,20.55c-17.64,0-24.42-10.11-25.45-19.67h14.61c1.01,4.6,4.31,8.25,11.43,8.25,6.56,0,10.19-3.7,10.19-9.49s-3.37-9.24-11.02-9.24h-5.71v-11.44h4.7c6.99,0,9.63-2.1,9.63-7.2,0-4.35-2.64-7.47-8.72-7.47-6.7,0-8.65,3.69-9.37,7h-14.36Z" style="fill:#e6e6e6;"/><path d="M91.6,100.65v-18.59h16.48v18.59h-16.48Z" style="fill:#9c90da;"/><path d="M147.86,100.65v-14.46h-30.99v-12.6l28.32-38.11h16.48v38.77h8.34l-1.28,11.93h-7.06v14.46h-13.81ZM147.86,63.24c0-5.7.04-10.9.25-14.69-2.64,4.89-10.01,15.5-17.49,25.71h17.24v-11.02Z" style="fill:#e6e6e6;"/><path d="M178.19,100.65v-18.59h16.48v18.59h-16.48Z" style="fill:#9c90da;"/><path d="M208.57,100.65v-48.04c-3.11,1.48-9.04,2.7-12.15,2.9v-10.97c7.05-1.41,13.06-5.41,16.34-9.08h10.67v65.2h-14.86Z" style="fill:#e6e6e6;"/></g><path d="M40.83,56.58c1.02-8.07,7.02-18.42,24.21-18.42,15.77,0,23.08,8.41,23.08,18.04,0,8.15-5.16,11.7-8.44,13.08v.25c4.36,1.56,11,5.52,11,15.76s-7.14,20.55-25.79,20.55c-17.64,0-24.42-10.11-25.45-19.67h14.61c1.01,4.6,4.31,8.25,11.43,8.25,6.56,0,10.19-3.7,10.19-9.49s-3.37-9.24-11.02-9.24h-5.71v-11.44h4.7c6.99,0,9.63-2.1,9.63-7.2,0-4.35-2.64-7.47-8.72-7.47-6.7,0-8.65,3.69-9.37,7h-14.36Z" style="fill:#e6e6e6;"/><path d="M100.24,104.58v-18.59h16.48v18.59h-16.48Z" style="fill:#9c90da;"/><path d="M156.5,104.58v-14.46h-30.99v-12.6l28.32-38.11h16.48v38.77h8.34l-1.28,11.93h-7.06v14.46h-13.81ZM156.5,67.17c0-5.7.04-10.9.25-14.69-2.64,4.89-10.01,15.5-17.49,25.71h17.24v-11.02Z" style="fill:#e6e6e6;"/><path d="M185.95,104.58v-18.59h16.48v18.59h-16.48Z" style="fill:#9c90da;"/><path d="M223.7,104.58v-48.04c-3.11,1.48-9.04,2.7-12.15,2.9v-10.97c7.05-1.41,13.06-5.41,16.34-9.08h10.67v65.2h-14.86Z" style="fill:#e6e6e6;"/></svg>